<svg width="32" height="32" viewBox="0 0 32 32" fill="none" xmlns="http://www.w3.org/2000/svg">
<path fill-rule="evenodd" clip-rule="evenodd" d="M16.0002 0.770752C7.58941 0.770752 0.770996 7.58917 0.770996 15.9999C0.770996 24.4107 7.58941 31.2291 16.0002 31.2291C24.4109 31.2291 31.2293 24.4107 31.2293 15.9999C31.2293 7.58917 24.4109 0.770752 16.0002 0.770752ZM2.896 15.9999C2.896 12.5245 4.27661 9.19138 6.73412 6.73387C9.19163 4.27637 12.5247 2.89575 16.0002 2.89575C19.4756 2.89575 22.8087 4.27637 25.2662 6.73387C27.7237 9.19138 29.1043 12.5245 29.1043 15.9999C29.1043 19.4754 27.7237 22.8085 25.2662 25.266C22.8087 27.7235 19.4756 29.1041 16.0002 29.1041C12.5247 29.1041 9.19163 27.7235 6.73412 25.266C4.27661 22.8085 2.896 19.4754 2.896 15.9999Z" fill="url(#paint0_linear_5_6566)"/>
<defs>
<linearGradient id="paint0_linear_5_6566" x1="0.770996" y1="15.9999" x2="31.2293" y2="15.9999" gradientUnits="userSpaceOnUse">
<stop stop-color="#A513B8"/>
<stop offset="1" stop-color="#EA3B12"/>
</linearGradient>
</defs>
</svg>
