<svg width="30" height="31" viewBox="0 0 30 31" fill="none" xmlns="http://www.w3.org/2000/svg">
<path d="M15.9375 8.45557C15.9375 7.9378 15.5178 7.51807 15 7.51807C14.4822 7.51807 14.0625 7.9378 14.0625 8.45557H15.9375ZM14.0625 15.9556C14.0625 16.4733 14.4822 16.8931 15 16.8931C15.5178 16.8931 15.9375 16.4733 15.9375 15.9556H14.0625ZM18.75 13.1431C19.2678 13.1431 19.6875 12.7233 19.6875 12.2056C19.6875 11.6878 19.2678 11.2681 18.75 11.2681V13.1431ZM11.25 11.2681C10.7322 11.2681 10.3125 11.6878 10.3125 12.2056C10.3125 12.7233 10.7322 13.1431 11.25 13.1431V11.2681ZM9.5 18.2056L8.75 18.7681L8.75 18.7681L9.5 18.2056ZM11 20.2056L11.75 19.6431L11 20.2056ZM19 20.2056L18.25 19.6431L19 20.2056ZM20.5 18.2056L19.75 17.6431V17.6431L20.5 18.2056ZM14.0625 8.45557V15.9556H15.9375V8.45557H14.0625ZM18.75 11.2681H11.25V13.1431H18.75V11.2681ZM26.5625 20.9556V24.7056H28.4375V20.9556H26.5625ZM23.75 27.5181H6.25V29.3931H23.75V27.5181ZM3.4375 24.7056V20.9556H1.5625V24.7056H3.4375ZM6.25 18.1431H7.5V16.2681H6.25V18.1431ZM8.75 18.7681L10.25 20.7681L11.75 19.6431L10.25 17.6431L8.75 18.7681ZM22.5 18.1431H23.75V16.2681H22.5V18.1431ZM19.75 20.7681L21.25 18.7681L19.75 17.6431L18.25 19.6431L19.75 20.7681ZM15 23.1431C16.8689 23.1431 18.6287 22.2632 19.75 20.7681L18.25 19.6431C17.4828 20.666 16.2787 21.2681 15 21.2681V23.1431ZM22.5 16.2681C21.418 16.2681 20.3992 16.7775 19.75 17.6431L21.25 18.7681C21.5451 18.3746 22.0082 18.1431 22.5 18.1431V16.2681ZM10.25 20.7681C11.3713 22.2632 13.1311 23.1431 15 23.1431V21.2681C13.7213 21.2681 12.5172 20.666 11.75 19.6431L10.25 20.7681ZM7.5 18.1431C7.99181 18.1431 8.45491 18.3746 8.75 18.7681L10.25 17.6431C9.60081 16.7775 8.58198 16.2681 7.5 16.2681V18.1431ZM6.25 27.5181C4.6967 27.5181 3.4375 26.2589 3.4375 24.7056H1.5625C1.5625 27.2944 3.66116 29.3931 6.25 29.3931V27.5181ZM26.5625 24.7056C26.5625 26.2589 25.3033 27.5181 23.75 27.5181V29.3931C26.3388 29.3931 28.4375 27.2944 28.4375 24.7056H26.5625ZM28.4375 20.9556C28.4375 18.3667 26.3388 16.2681 23.75 16.2681V18.1431C25.3033 18.1431 26.5625 19.4023 26.5625 20.9556H28.4375ZM3.4375 20.9556C3.4375 19.4023 4.6967 18.1431 6.25 18.1431V16.2681C3.66117 16.2681 1.5625 18.3667 1.5625 20.9556H3.4375ZM25.9375 17.2056V8.45557H24.0625V17.2056H25.9375ZM20 2.51807H10V4.39307H20V2.51807ZM4.0625 8.45557V17.2056H5.9375V8.45557H4.0625ZM10 2.51807C6.72081 2.51807 4.0625 5.17638 4.0625 8.45557H5.9375C5.9375 6.21191 7.75634 4.39307 10 4.39307V2.51807ZM25.9375 8.45557C25.9375 5.17638 23.2792 2.51807 20 2.51807V4.39307C22.2437 4.39307 24.0625 6.21191 24.0625 8.45557H25.9375Z" fill="white"/>
</svg>
