<svg width="12" height="12" viewBox="0 0 12 12" fill="none" xmlns="http://www.w3.org/2000/svg">
<path d="M7.0625 1.75C7.0625 1.46821 6.95056 1.19796 6.7513 0.9987C6.55204 0.799442 6.28179 0.6875 6 0.6875C5.71821 0.6875 5.44796 0.799442 5.2487 0.9987C5.04944 1.19796 4.9375 1.46821 4.9375 1.75V4.9375H1.75C1.46821 4.9375 1.19796 5.04944 0.9987 5.2487C0.799442 5.44796 0.6875 5.71821 0.6875 6C0.6875 6.28179 0.799442 6.55204 0.9987 6.7513C1.19796 6.95056 1.46821 7.0625 1.75 7.0625H4.9375V10.25C4.9375 10.5318 5.04944 10.802 5.2487 11.0013C5.44796 11.2006 5.71821 11.3125 6 11.3125C6.28179 11.3125 6.55204 11.2006 6.7513 11.0013C6.95056 10.802 7.0625 10.5318 7.0625 10.25V7.0625H10.25C10.5318 7.0625 10.802 6.95056 11.0013 6.7513C11.2006 6.55204 11.3125 6.28179 11.3125 6C11.3125 5.71821 11.2006 5.44796 11.0013 5.2487C10.802 5.04944 10.5318 4.9375 10.25 4.9375H7.0625V1.75Z" fill="url(#paint0_linear_5_6565)"/>
<defs>
<linearGradient id="paint0_linear_5_6565" x1="0.6875" y1="6" x2="11.3125" y2="6" gradientUnits="userSpaceOnUse">
<stop stop-color="#A513B8"/>
<stop offset="1" stop-color="#EA3B12"/>
</linearGradient>
</defs>
</svg>
