<svg width="24" height="24" viewBox="0 0 24 24" fill="none" xmlns="http://www.w3.org/2000/svg">
<path fill-rule="evenodd" clip-rule="evenodd" d="M22.75 7.00003C22.7496 6.13338 22.5533 5.27803 22.1758 4.49793C21.7983 3.71782 21.2493 3.03315 20.5699 2.49509C19.8905 1.95703 19.0983 1.57951 18.2524 1.39074C17.4066 1.20197 16.529 1.20685 15.6853 1.405C14.8416 1.60315 14.0536 1.98945 13.3803 2.53503C12.7069 3.0806 12.1655 3.77133 11.7967 4.55558C11.4279 5.33983 11.2411 6.1973 11.2503 7.0639C11.2596 7.9305 11.4646 8.78381 11.85 9.56003C11.8565 9.57256 11.8609 9.58607 11.863 9.60003V9.60703L11.566 10.72C11.5026 10.9573 11.5027 11.2071 11.5664 11.4443C11.63 11.6815 11.7549 11.8978 11.9286 12.0714C12.1022 12.2451 12.3185 12.37 12.5557 12.4337C12.793 12.4973 13.0427 12.4974 13.28 12.434L14.393 12.136C14.391 12.136 14.392 12.136 14.393 12.136H14.4C14.414 12.1384 14.4276 12.1431 14.44 12.15C15.3168 12.586 16.2903 12.7908 17.2684 12.7451C18.2465 12.6994 19.1967 12.4047 20.029 11.8889C20.8613 11.3731 21.548 10.6533 22.0242 9.79773C22.5004 8.94217 22.7502 7.97918 22.75 7.00003ZM17 2.75003C17.6405 2.75044 18.2726 2.89561 18.8491 3.17469C19.4256 3.45377 19.9315 3.85954 20.3291 4.36167C20.7268 4.8638 21.0057 5.4493 21.1452 6.07441C21.2847 6.69953 21.2811 7.34808 21.1347 7.97161C20.9883 8.59514 20.7028 9.17751 20.2997 9.67519C19.8965 10.1729 19.3861 10.573 18.8065 10.8457C18.227 11.1183 17.5933 11.2565 16.9528 11.2498C16.3124 11.2431 15.6817 11.0917 15.108 10.807C14.7676 10.6341 14.3757 10.5914 14.006 10.687L13.06 10.94L13.313 9.99403C13.4087 9.62435 13.366 9.23244 13.193 8.89203C12.8708 8.24396 12.7195 7.52435 12.7533 6.80141C12.7871 6.07846 13.005 5.37613 13.3863 4.76097C13.7676 4.14582 14.2996 3.63823 14.932 3.28631C15.5645 2.93439 16.2763 2.74979 17 2.75003Z" fill="#848484"/>
<path fill-rule="evenodd" clip-rule="evenodd" d="M3.00699 6.40693C4.68699 4.72693 7.52299 4.85494 8.69199 6.95094L9.34199 8.11394C10.105 9.48194 9.77999 11.2089 8.66199 12.3409C8.59594 12.4411 8.55986 12.558 8.55799 12.6779C8.54499 12.9339 8.63599 13.5269 9.55499 14.4449C10.473 15.3629 11.065 15.4549 11.322 15.4419C11.4419 15.4401 11.5588 15.404 11.659 15.3379C12.79 14.2199 14.518 13.8949 15.886 14.6579L17.049 15.3079C19.145 16.4779 19.273 19.3129 17.593 20.9929C16.694 21.8909 15.499 22.6899 14.095 22.7429C12.015 22.8219 8.55899 22.2839 5.13699 18.8629C1.71599 15.4409 1.17799 11.9859 1.25699 9.90493C1.30999 8.49993 2.10899 7.30493 3.00699 6.40693ZM7.38299 7.68194C6.78299 6.60794 5.17299 6.36193 4.06799 7.46793C3.29299 8.24293 2.78799 9.09794 2.75599 9.96094C2.68999 11.6969 3.11899 14.7229 6.19799 17.8019C9.27799 20.8819 12.303 21.3099 14.038 21.2439C14.901 21.2109 15.758 20.7069 16.532 19.9319C17.638 18.8259 17.392 17.2159 16.318 16.6169L15.155 15.9679C14.432 15.5649 13.415 15.7019 12.703 16.4159C12.633 16.4859 12.186 16.9019 11.395 16.9399C10.585 16.9799 9.60399 16.6159 8.49499 15.5059C7.38399 14.3959 7.01999 13.4149 7.05999 12.6039C7.09799 11.8129 7.51499 11.3669 7.58399 11.2979C8.29799 10.5839 8.43499 9.56793 8.03199 8.84494L7.38299 7.68194Z" fill="#848484"/>
</svg>
