<svg width="24" height="25" viewBox="0 0 24 25" fill="none" xmlns="http://www.w3.org/2000/svg">
<path d="M8 6.95557V5.95557C8 4.29871 9.34315 2.95557 11 2.95557H13C14.6569 2.95557 16 4.29871 16 5.95557V6.95557M2 11.3031C2 11.3031 5.11804 13.38 9.97767 13.8664M22 11.3031C22 11.3031 18.882 13.38 14.0223 13.8664M6 22.9556H18C20.2091 22.9556 22 21.1647 22 18.9556V10.9556C22 8.74643 20.2091 6.95557 18 6.95557H6C3.79086 6.95557 2 8.74643 2 10.9556V18.9556C2 21.1647 3.79086 22.9556 6 22.9556Z" stroke="#B4B4B4" stroke-width="1.5" stroke-linecap="round"/>
<path d="M14 13.1155V14.1155C14 14.1255 14 14.1255 14 14.1355C14 15.2255 13.99 16.1155 12 16.1155C10.02 16.1155 10 15.2355 10 14.1455V13.1155C10 12.1155 10 12.1155 11 12.1155H13C14 12.1155 14 12.1155 14 13.1155Z" stroke="#B4B4B4" stroke-width="1.5" stroke-miterlimit="10" stroke-linecap="round" stroke-linejoin="round"/>
</svg>
