<svg width="24" height="24" viewBox="0 0 24 24" fill="none" xmlns="http://www.w3.org/2000/svg">
<path fill-rule="evenodd" clip-rule="evenodd" d="M17 2.7499C16.2763 2.74967 15.5645 2.93426 14.932 3.28618C14.2996 3.6381 13.7676 4.1457 13.3863 4.76085C13.005 5.376 12.7871 6.07833 12.7533 6.80128C12.7195 7.52423 12.8708 8.24384 13.193 8.8919C13.353 9.2119 13.418 9.6019 13.313 9.9939L13.06 10.9399L14.006 10.6869C14.3757 10.5913 14.7676 10.634 15.108 10.8069C15.6817 11.0916 16.3124 11.243 16.9528 11.2497C17.5933 11.2564 18.227 11.1182 18.8065 10.8455C19.3861 10.5729 19.8965 10.1728 20.2997 9.67507C20.7028 9.17738 20.9883 8.59501 21.1347 7.97149C21.2811 7.34796 21.2847 6.6994 21.1452 6.07429C21.0057 5.44917 20.7268 4.86367 20.3291 4.36154C19.9315 3.85941 19.4256 3.45365 18.8491 3.17457C18.2726 2.89549 17.6405 2.75032 17 2.7499ZM11.25 6.9999C11.2503 5.74949 11.6582 4.53324 12.4118 3.53548C13.1655 2.53773 14.2239 1.81284 15.4266 1.47068C16.6293 1.12852 17.9107 1.18774 19.0767 1.63935C20.2428 2.09097 21.2298 2.91037 21.8882 3.97338C22.5467 5.03639 22.8406 6.28506 22.7256 7.53018C22.6106 8.77529 22.0928 9.94897 21.2508 10.8734C20.4087 11.7977 19.2883 12.4225 18.0593 12.6528C16.8303 12.8832 15.5597 12.7066 14.44 12.1499C14.4275 12.1434 14.414 12.139 14.4 12.1369H14.393L13.281 12.4339C13.0437 12.4975 12.7938 12.4976 12.5564 12.434C12.319 12.3705 12.1026 12.2456 11.9288 12.0719C11.755 11.8982 11.63 11.6818 11.5663 11.4445C11.5026 11.2072 11.5025 10.9573 11.566 10.7199L11.864 9.6069V9.5999C11.8616 9.58587 11.8569 9.57235 11.85 9.5599C11.4543 8.76461 11.2489 7.88821 11.25 6.9999ZM3.718 4.0919C4.944 2.8019 6.972 3.0429 7.986 4.4769L9.246 6.2599C10.057 7.4069 9.989 8.9999 9.021 10.0199L8.776 10.2769C8.776 10.2789 8.776 10.2809 8.774 10.2829C8.761 10.3199 8.729 10.4349 8.761 10.6549C8.828 11.1109 9.179 12.0359 10.607 13.5389C12.039 15.0469 12.907 15.4029 13.31 15.4679C13.4071 15.4897 13.508 15.4873 13.604 15.4609L14.012 15.0309C14.886 14.1109 16.248 13.9299 17.347 14.5619L19.257 15.6619C20.89 16.6019 21.27 18.9009 19.965 20.2749L18.545 21.7699C18.102 22.2369 17.497 22.6359 16.75 22.7099C14.926 22.8899 10.701 22.6549 6.272 17.9919C2.138 13.6399 1.353 9.8549 1.254 8.0059C1.205 7.0919 1.612 6.3089 2.148 5.7449L3.718 4.0919ZM6.761 5.3419C6.249 4.6179 5.328 4.5749 4.805 5.1249L3.235 6.7779C2.905 7.1269 2.73 7.5259 2.752 7.9259C2.832 9.4359 3.483 12.8779 7.359 16.9589C11.423 21.2379 15.168 21.3589 16.603 21.2169C16.886 21.1889 17.178 21.0309 17.457 20.7369L18.877 19.2419C19.491 18.5969 19.33 17.4339 18.509 16.9619L16.599 15.8619C16.086 15.5669 15.485 15.6579 15.1 16.0639L14.645 16.5439L14.101 16.0269C14.644 16.5439 14.644 16.5439 14.643 16.5449L14.642 16.5469L14.639 16.5499L14.632 16.5559L14.618 16.5699C14.576 16.6112 14.5305 16.6486 14.482 16.6819C14.402 16.7389 14.296 16.8019 14.161 16.8539C13.885 16.9639 13.521 17.0219 13.07 16.9489C12.192 16.8059 11.042 16.1759 9.52 14.5719C7.992 12.9639 7.407 11.7649 7.277 10.8719C7.21463 10.5065 7.24348 10.1314 7.361 9.7799C7.41541 9.62666 7.49298 9.48265 7.591 9.3529L7.621 9.3159L7.635 9.3009L7.641 9.2949L7.644 9.2919L7.646 9.2899C7.646 9.2899 7.647 9.2889 8.191 9.8049L7.647 9.2889L7.934 8.9869C8.379 8.5169 8.444 7.7229 8.022 7.1269L6.761 5.3419Z" fill="#646464"/>
</svg>
