<svg width="22" height="22" viewBox="0 0 22 22" fill="none" xmlns="http://www.w3.org/2000/svg">
<path d="M21 10.9556C21 16.4784 16.5228 20.9556 11 20.9556M21 10.9556C21 5.43272 16.5228 0.955566 11 0.955566M21 10.9556H19M11 20.9556C5.47715 20.9556 1 16.4784 1 10.9556M11 20.9556V18.9556M1 10.9556C1 5.43272 5.47715 0.955566 11 0.955566M1 10.9556H3M11 0.955566V2.95557M13.8612 7.0014L7.59084 9.09151C6.80305 9.35411 6.80305 10.4684 7.59084 10.731L9.90626 11.5028C10.1643 11.5888 10.3667 11.7913 10.4528 12.0493L11.2246 14.3647C11.4872 15.1525 12.6015 15.1525 12.8641 14.3647L14.9542 8.0944C15.1793 7.41889 14.5367 6.77623 13.8612 7.0014Z" stroke="white" stroke-width="1.5" stroke-linecap="round" stroke-linejoin="round"/>
</svg>
