<svg width="261" height="16" viewBox="0 0 261 16" fill="none" xmlns="http://www.w3.org/2000/svg">
<path d="M7.22231 10.416V12H1.11031V10.416H3.38231V4.832C3.28631 4.96 3.13698 5.09333 2.93431 5.232C2.73165 5.37067 2.50231 5.504 2.24631 5.632C2.00098 5.74933 1.75031 5.84533 1.49431 5.92C1.23831 5.99467 1.00365 6.032 0.790313 6.032V4.384C1.00365 4.384 1.24898 4.32 1.52631 4.192C1.80365 4.064 2.07565 3.91467 2.34231 3.744C2.61965 3.56267 2.85431 3.392 3.04631 3.232C3.23831 3.06133 3.35031 2.93867 3.38231 2.864H5.19031V10.416H7.22231ZM7.74156 12C7.74156 11.552 7.7789 11.1413 7.85356 10.768C7.92823 10.384 8.05623 10.0213 8.23756 9.68C8.42956 9.33867 8.6909 9.01867 9.02156 8.72C9.3629 8.41067 9.7949 8.11733 10.3176 7.84C10.6909 7.62667 11.0429 7.44 11.3736 7.28C11.7042 7.10933 11.9976 6.944 12.2536 6.784C12.5096 6.61333 12.7069 6.432 12.8456 6.24C12.9949 6.048 13.0696 5.82933 13.0696 5.584C13.0696 5.34933 13.0056 5.13067 12.8776 4.928C12.7496 4.72533 12.5576 4.56533 12.3016 4.448C12.0456 4.32 11.7362 4.256 11.3736 4.256C11.0856 4.256 10.8189 4.29333 10.5736 4.368C10.3389 4.44267 10.1202 4.544 9.91756 4.672C9.72556 4.78933 9.54956 4.92267 9.38956 5.072C9.22956 5.21067 9.0909 5.34933 8.97356 5.488L7.86956 4.224C7.97623 4.096 8.14156 3.952 8.36556 3.792C8.60023 3.62133 8.87756 3.456 9.19756 3.296C9.52823 3.12533 9.90156 2.98667 10.3176 2.88C10.7336 2.76267 11.1869 2.704 11.6776 2.704C12.3709 2.704 12.9629 2.82133 13.4536 3.056C13.9442 3.28 14.3176 3.59467 14.5736 4C14.8402 4.39467 14.9736 4.84267 14.9736 5.344C14.9736 5.73867 14.8936 6.08533 14.7336 6.384C14.5842 6.68267 14.3869 6.94933 14.1416 7.184C13.8962 7.408 13.6349 7.60533 13.3576 7.776C13.0909 7.936 12.8402 8.08 12.6056 8.208C12.1896 8.41067 11.8269 8.59733 11.5176 8.768C11.2189 8.93867 10.9629 9.10933 10.7496 9.28C10.5362 9.44 10.3602 9.61067 10.2216 9.792C10.0829 9.96267 9.96556 10.1707 9.86956 10.416H15.1496V12H7.74156ZM21.2868 8.224C21.7348 8.29867 22.1241 8.46933 22.4548 8.736C22.7961 8.992 23.0575 9.32267 23.2388 9.728C23.4201 10.1227 23.5108 10.5707 23.5108 11.072C23.5108 11.7333 23.3455 12.3093 23.0148 12.8C22.6948 13.2907 22.2361 13.6693 21.6388 13.936C21.0415 14.2133 20.3375 14.352 19.5268 14.352C18.7161 14.352 18.0015 14.208 17.3828 13.92C16.7641 13.6427 16.2681 13.2373 15.8948 12.704L16.9668 11.488C17.2228 11.872 17.5535 12.176 17.9588 12.4C18.3641 12.6347 18.8761 12.752 19.4948 12.752C20.1881 12.752 20.7268 12.6027 21.1108 12.304C21.4948 12.0053 21.6868 11.5573 21.6868 10.96C21.6868 10.3413 21.4735 9.856 21.0468 9.504C20.6308 9.152 20.0015 8.976 19.1588 8.976H18.7268V7.6H19.2068C19.9215 7.6 20.4708 7.43467 20.8548 7.104C21.2388 6.76267 21.4308 6.336 21.4308 5.824C21.4308 5.48267 21.3508 5.20533 21.1908 4.992C21.0415 4.768 20.8281 4.60267 20.5508 4.496C20.2735 4.38933 19.9535 4.336 19.5908 4.336C19.0468 4.336 18.5668 4.45333 18.1508 4.688C17.7348 4.92267 17.4041 5.25867 17.1588 5.696L16.0548 4.496C16.2681 4.15467 16.5615 3.856 16.9348 3.6C17.3081 3.344 17.7348 3.14667 18.2148 3.008C18.7055 2.85867 19.2228 2.784 19.7668 2.784C20.4708 2.784 21.0895 2.90133 21.6228 3.136C22.1561 3.37067 22.5668 3.70133 22.8548 4.128C23.1535 4.55467 23.3028 5.056 23.3028 5.632C23.3028 6.048 23.2228 6.44267 23.0628 6.816C22.9028 7.17867 22.6681 7.488 22.3588 7.744C22.0495 7.98933 21.6921 8.14933 21.2868 8.224ZM37.9492 12V3.904L34.6052 10.048H33.5492L30.1892 3.904V12H28.3972V0.639999H30.3172L34.0772 7.584L37.8372 0.639999H39.7572V12H37.9492ZM40.8933 9.552C40.8933 9.01867 41.0426 8.55467 41.3413 8.16C41.6506 7.75467 42.072 7.44533 42.6053 7.232C43.1386 7.008 43.7573 6.896 44.4613 6.896C44.8346 6.896 45.2133 6.92267 45.5973 6.976C45.992 7.02933 46.3386 7.11467 46.6373 7.232V6.704C46.6373 6.11733 46.4613 5.65867 46.1093 5.328C45.7573 4.99733 45.2506 4.832 44.5893 4.832C44.12 4.832 43.6773 4.91733 43.2613 5.088C42.8453 5.248 42.4026 5.47733 41.9333 5.776L41.3413 4.592C41.896 4.21867 42.4506 3.94133 43.0053 3.76C43.5706 3.57867 44.1626 3.488 44.7813 3.488C45.9013 3.488 46.7813 3.78667 47.4213 4.384C48.072 4.97067 48.3973 5.808 48.3973 6.896V10.016C48.3973 10.2187 48.4293 10.3627 48.4933 10.448C48.568 10.5333 48.6906 10.5813 48.8613 10.592V12C48.7013 12.032 48.5573 12.0533 48.4293 12.064C48.3013 12.0747 48.1946 12.08 48.1093 12.08C47.736 12.08 47.4533 11.9893 47.2613 11.808C47.0693 11.6267 46.9573 11.4133 46.9253 11.168L46.8773 10.688C46.5146 11.1573 46.0506 11.52 45.4853 11.776C44.92 12.032 44.3493 12.16 43.7733 12.16C43.2186 12.16 42.7226 12.048 42.2853 11.824C41.848 11.5893 41.5066 11.2747 41.2613 10.88C41.016 10.4853 40.8933 10.0427 40.8933 9.552ZM46.2213 10.064C46.3493 9.92533 46.4506 9.78667 46.5253 9.648C46.6 9.50933 46.6373 9.38667 46.6373 9.28V8.32C46.3386 8.20267 46.024 8.11733 45.6933 8.064C45.3626 8 45.0373 7.968 44.7173 7.968C44.0773 7.968 43.5546 8.096 43.1493 8.352C42.7546 8.608 42.5573 8.96 42.5573 9.408C42.5573 9.65333 42.6213 9.888 42.7493 10.112C42.888 10.336 43.08 10.5173 43.3253 10.656C43.5813 10.7947 43.896 10.864 44.2693 10.864C44.6533 10.864 45.0213 10.7893 45.3733 10.64C45.7253 10.4907 46.008 10.2987 46.2213 10.064ZM50.0326 12V3.632H51.7926V12H50.0326ZM50.0326 2.256V0.32H51.7926V2.256H50.0326ZM60.9116 12H59.1516V7.312C59.1516 6.53333 59.0236 5.96267 58.7676 5.6C58.5222 5.23733 58.1542 5.056 57.6636 5.056C57.3222 5.056 56.9809 5.14133 56.6396 5.312C56.3089 5.48267 56.0102 5.71733 55.7436 6.016C55.4769 6.304 55.2849 6.64 55.1676 7.024V12H53.4076V3.632H55.0076V5.312C55.2209 4.93867 55.4982 4.61867 55.8396 4.352C56.1916 4.07467 56.5862 3.86133 57.0236 3.712C57.4609 3.56267 57.9249 3.488 58.4156 3.488C58.9169 3.488 59.3276 3.57867 59.6476 3.76C59.9782 3.94133 60.2342 4.192 60.4156 4.512C60.6076 4.82133 60.7356 5.184 60.7996 5.6C60.8742 6.00533 60.9116 6.43733 60.9116 6.896V12ZM72.8516 3.312C72.7449 3.19467 72.5902 3.072 72.3876 2.944C72.1849 2.80533 71.9449 2.67733 71.6676 2.56C71.3902 2.44267 71.0916 2.34667 70.7716 2.272C70.4516 2.19733 70.1209 2.16 69.7796 2.16C69.0329 2.16 68.4782 2.29867 68.1156 2.576C67.7529 2.85333 67.5716 3.23733 67.5716 3.728C67.5716 4.09067 67.6729 4.37867 67.8756 4.592C68.0782 4.79467 68.3876 4.96533 68.8036 5.104C69.2196 5.24267 69.7422 5.392 70.3716 5.552C71.1396 5.73333 71.8062 5.952 72.3716 6.208C72.9369 6.45333 73.3689 6.784 73.6676 7.2C73.9662 7.616 74.1156 8.16533 74.1156 8.848C74.1156 9.424 74.0089 9.92 73.7956 10.336C73.5822 10.752 73.2836 11.0933 72.8996 11.36C72.5156 11.616 72.0729 11.808 71.5716 11.936C71.0702 12.0533 70.5316 12.112 69.9556 12.112C69.3902 12.112 68.8249 12.0533 68.2596 11.936C67.7049 11.8187 67.1716 11.648 66.6596 11.424C66.1582 11.1893 65.6942 10.9067 65.2676 10.576L66.0836 9.04C66.2222 9.17867 66.4196 9.33333 66.6756 9.504C66.9422 9.664 67.2462 9.81867 67.5876 9.968C67.9396 10.1173 68.3182 10.2453 68.7236 10.352C69.1396 10.448 69.5609 10.496 69.9876 10.496C70.7022 10.496 71.2462 10.3733 71.6196 10.128C72.0036 9.872 72.1956 9.50933 72.1956 9.04C72.1956 8.656 72.0729 8.352 71.8276 8.128C71.5822 7.89333 71.2249 7.696 70.7556 7.536C70.2862 7.376 69.7262 7.216 69.0756 7.056C68.3289 6.85333 67.7049 6.63467 67.2036 6.4C66.7022 6.15467 66.3236 5.84533 66.0676 5.472C65.8222 5.088 65.6996 4.60267 65.6996 4.016C65.6996 3.26933 65.8809 2.64 66.2436 2.128C66.6062 1.60533 67.0969 1.216 67.7156 0.959999C68.3449 0.693333 69.0489 0.559999 69.8276 0.559999C70.3396 0.559999 70.8249 0.618666 71.2836 0.735999C71.7422 0.842666 72.1689 0.992 72.5636 1.184C72.9689 1.376 73.3369 1.59467 73.6676 1.84L72.8516 3.312ZM79.6729 11.568C79.5236 11.6427 79.3369 11.7227 79.1129 11.808C78.8889 11.8933 78.6329 11.968 78.3449 12.032C78.0676 12.096 77.7796 12.128 77.4809 12.128C77.1183 12.128 76.7823 12.064 76.4729 11.936C76.1636 11.808 75.9129 11.6053 75.7209 11.328C75.5396 11.04 75.4489 10.672 75.4489 10.224V4.992H74.3449V3.632H75.4489V0.879999H77.2089V3.632H79.0329V4.992H77.2089V9.664C77.2303 9.952 77.3209 10.1653 77.4809 10.304C77.6516 10.4427 77.8596 10.512 78.1049 10.512C78.3503 10.512 78.5849 10.4693 78.8089 10.384C79.0329 10.2987 79.1983 10.2293 79.3049 10.176L79.6729 11.568ZM85.0959 5.152C84.4133 5.16267 83.8053 5.31733 83.2719 5.616C82.7493 5.91467 82.3759 6.336 82.1519 6.88V12H80.3919V3.632H82.0239V5.504C82.3119 4.928 82.6906 4.46933 83.1599 4.128C83.6293 3.776 84.1253 3.584 84.6479 3.552C84.7546 3.552 84.8399 3.552 84.9039 3.552C84.9786 3.552 85.0426 3.55733 85.0959 3.568V5.152ZM89.5121 12.16C88.8614 12.16 88.2694 12.048 87.7361 11.824C87.2134 11.5893 86.7601 11.2747 86.3761 10.88C85.9921 10.4747 85.6934 10.016 85.4801 9.504C85.2774 8.98133 85.1761 8.42667 85.1761 7.84C85.1761 7.05067 85.3574 6.33067 85.7201 5.68C86.0827 5.01867 86.5894 4.49067 87.2401 4.096C87.8907 3.69067 88.6534 3.488 89.5281 3.488C90.4027 3.488 91.1547 3.69067 91.7841 4.096C92.4241 4.49067 92.9201 5.01333 93.2721 5.664C93.6241 6.31467 93.8001 7.01333 93.8001 7.76C93.8001 7.888 93.7947 8.01067 93.7841 8.128C93.7734 8.23467 93.7627 8.32533 93.7521 8.4H87.0481C87.0801 8.89067 87.2134 9.32267 87.4481 9.696C87.6934 10.0587 88.0027 10.3467 88.3761 10.56C88.7494 10.7627 89.1494 10.864 89.5761 10.864C90.0454 10.864 90.4881 10.7467 90.9041 10.512C91.3307 10.2773 91.6187 9.968 91.7681 9.584L93.2721 10.016C93.0907 10.4213 92.8134 10.7893 92.4401 11.12C92.0774 11.44 91.6454 11.696 91.1441 11.888C90.6427 12.0693 90.0987 12.16 89.5121 12.16ZM87.0001 7.232H92.0561C92.0241 6.752 91.8854 6.33067 91.6401 5.968C91.4054 5.59467 91.1014 5.30667 90.7281 5.104C90.3654 4.89067 89.9601 4.784 89.5121 4.784C89.0747 4.784 88.6694 4.89067 88.2961 5.104C87.9334 5.30667 87.6347 5.59467 87.4001 5.968C87.1654 6.33067 87.0321 6.752 87.0001 7.232ZM98.5277 12.16C97.877 12.16 97.285 12.048 96.7517 11.824C96.229 11.5893 95.7757 11.2747 95.3917 10.88C95.0077 10.4747 94.709 10.016 94.4957 9.504C94.293 8.98133 94.1917 8.42667 94.1917 7.84C94.1917 7.05067 94.373 6.33067 94.7357 5.68C95.0984 5.01867 95.605 4.49067 96.2557 4.096C96.9064 3.69067 97.669 3.488 98.5437 3.488C99.4184 3.488 100.17 3.69067 100.8 4.096C101.44 4.49067 101.936 5.01333 102.288 5.664C102.64 6.31467 102.816 7.01333 102.816 7.76C102.816 7.888 102.81 8.01067 102.8 8.128C102.789 8.23467 102.778 8.32533 102.768 8.4H96.0637C96.0957 8.89067 96.229 9.32267 96.4637 9.696C96.709 10.0587 97.0184 10.3467 97.3917 10.56C97.765 10.7627 98.165 10.864 98.5917 10.864C99.061 10.864 99.5037 10.7467 99.9197 10.512C100.346 10.2773 100.634 9.968 100.784 9.584L102.288 10.016C102.106 10.4213 101.829 10.7893 101.456 11.12C101.093 11.44 100.661 11.696 100.16 11.888C99.6584 12.0693 99.1144 12.16 98.5277 12.16ZM96.0157 7.232H101.072C101.04 6.752 100.901 6.33067 100.656 5.968C100.421 5.59467 100.117 5.30667 99.7437 5.104C99.381 4.89067 98.9757 4.784 98.5277 4.784C98.0904 4.784 97.685 4.89067 97.3117 5.104C96.949 5.30667 96.6504 5.59467 96.4157 5.968C96.181 6.33067 96.0477 6.752 96.0157 7.232ZM108.329 11.568C108.18 11.6427 107.993 11.7227 107.769 11.808C107.545 11.8933 107.289 11.968 107.001 12.032C106.724 12.096 106.436 12.128 106.137 12.128C105.775 12.128 105.439 12.064 105.129 11.936C104.82 11.808 104.569 11.6053 104.377 11.328C104.196 11.04 104.105 10.672 104.105 10.224V4.992H103.001V3.632H104.105V0.879999H105.865V3.632H107.689V4.992H105.865V9.664C105.887 9.952 105.977 10.1653 106.137 10.304C106.308 10.4427 106.516 10.512 106.761 10.512C107.007 10.512 107.241 10.4693 107.465 10.384C107.689 10.2987 107.855 10.2293 107.961 10.176L108.329 11.568ZM112.053 6.464C112.053 5.376 112.277 4.304 112.725 3.248C113.184 2.18133 113.733 1.09867 114.373 -9.53674e-07L115.733 0.575999C115.541 0.853333 115.328 1.216 115.093 1.664C114.869 2.112 114.651 2.61333 114.437 3.168C114.224 3.712 114.048 4.272 113.909 4.848C113.771 5.41333 113.701 5.968 113.701 6.512C113.701 7.35467 113.883 8.25067 114.245 9.2C114.608 10.1493 115.088 11.1147 115.685 12.096L114.405 12.752C113.957 12.08 113.552 11.3973 113.189 10.704C112.837 10.0107 112.56 9.30667 112.357 8.592C112.155 7.86667 112.053 7.15733 112.053 6.464ZM120.302 0.639999H121.998L126.414 12H124.526L123.326 8.912H118.942L117.758 12H115.854L120.302 0.639999ZM122.974 7.584L121.15 2.608L119.262 7.584H122.974ZM134.599 12H132.839V7.312C132.839 6.53333 132.711 5.96267 132.455 5.6C132.21 5.23733 131.842 5.056 131.351 5.056C131.01 5.056 130.668 5.14133 130.327 5.312C129.996 5.48267 129.698 5.71733 129.431 6.016C129.164 6.304 128.972 6.64 128.855 7.024V12H127.095V3.632H128.695V5.312C128.908 4.93867 129.186 4.61867 129.527 4.352C129.879 4.07467 130.274 3.86133 130.711 3.712C131.148 3.56267 131.612 3.488 132.103 3.488C132.604 3.488 133.015 3.57867 133.335 3.76C133.666 3.94133 133.922 4.192 134.103 4.512C134.295 4.82133 134.423 5.184 134.487 5.6C134.562 6.00533 134.599 6.43733 134.599 6.896V12ZM136.274 13.968C136.434 13.9893 136.588 14.0107 136.738 14.032C136.898 14.064 137.026 14.08 137.122 14.08C137.303 14.08 137.458 14.0213 137.586 13.904C137.724 13.7973 137.863 13.5947 138.002 13.296C138.14 12.9973 138.311 12.5653 138.514 12L135.074 3.632H136.914L139.474 10.208L141.746 3.632H143.442L139.65 13.936C139.532 14.2453 139.362 14.528 139.138 14.784C138.914 15.0507 138.636 15.2587 138.306 15.408C137.975 15.5573 137.586 15.632 137.138 15.632C137.01 15.632 136.876 15.6213 136.738 15.6C136.599 15.5787 136.444 15.5467 136.274 15.504V13.968ZM148.892 11.568C148.742 11.6427 148.556 11.7227 148.332 11.808C148.108 11.8933 147.852 11.968 147.564 12.032C147.286 12.096 146.998 12.128 146.7 12.128C146.337 12.128 146.001 12.064 145.692 11.936C145.382 11.808 145.132 11.6053 144.94 11.328C144.758 11.04 144.668 10.672 144.668 10.224V4.992H143.564V3.632H144.668V0.879999H146.428V3.632H148.252V4.992H146.428V9.664C146.449 9.952 146.54 10.1653 146.7 10.304C146.87 10.4427 147.078 10.512 147.324 10.512C147.569 10.512 147.804 10.4693 148.028 10.384C148.252 10.2987 148.417 10.2293 148.524 10.176L148.892 11.568ZM153.261 12.16C152.6 12.16 152.008 12.048 151.485 11.824C150.963 11.5893 150.509 11.2693 150.125 10.864C149.752 10.4587 149.464 10 149.261 9.488C149.059 8.96533 148.957 8.41067 148.957 7.824C148.957 7.23733 149.059 6.68267 149.261 6.16C149.464 5.63733 149.752 5.17867 150.125 4.784C150.509 4.37867 150.963 4.064 151.485 3.84C152.019 3.60533 152.611 3.488 153.261 3.488C153.912 3.488 154.499 3.60533 155.021 3.84C155.555 4.064 156.008 4.37867 156.381 4.784C156.765 5.17867 157.059 5.63733 157.261 6.16C157.464 6.68267 157.565 7.23733 157.565 7.824C157.565 8.41067 157.464 8.96533 157.261 9.488C157.059 10 156.765 10.4587 156.381 10.864C156.008 11.2693 155.555 11.5893 155.021 11.824C154.499 12.048 153.912 12.16 153.261 12.16ZM150.765 7.84C150.765 8.37333 150.877 8.85333 151.101 9.28C151.325 9.70667 151.624 10.0427 151.997 10.288C152.371 10.5333 152.792 10.656 153.261 10.656C153.72 10.656 154.136 10.5333 154.509 10.288C154.893 10.032 155.197 9.69067 155.421 9.264C155.645 8.82667 155.757 8.34667 155.757 7.824C155.757 7.29067 155.645 6.81067 155.421 6.384C155.197 5.95733 154.893 5.62133 154.509 5.376C154.136 5.12 153.72 4.992 153.261 4.992C152.792 4.992 152.371 5.12 151.997 5.376C151.624 5.632 151.325 5.97333 151.101 6.4C150.877 6.816 150.765 7.296 150.765 7.84ZM168.777 3.632H170.457L166.937 12H165.433L163.929 8.224L162.425 12H160.921L157.385 3.632H159.065L161.753 10.288L162.937 7.2L161.497 3.648H162.985L163.929 6.256L164.857 3.648H166.345L164.921 7.2L166.105 10.288L168.777 3.632ZM178.63 12H176.87V7.312C176.87 6.53333 176.742 5.96267 176.486 5.6C176.241 5.23733 175.873 5.056 175.382 5.056C175.041 5.056 174.7 5.14133 174.358 5.312C174.028 5.48267 173.729 5.71733 173.462 6.016C173.196 6.304 173.004 6.64 172.886 7.024V12H171.126V3.632H172.726V5.312C172.94 4.93867 173.217 4.61867 173.558 4.352C173.91 4.07467 174.305 3.86133 174.742 3.712C175.18 3.56267 175.644 3.488 176.134 3.488C176.636 3.488 177.046 3.57867 177.366 3.76C177.697 3.94133 177.953 4.192 178.134 4.512C178.326 4.82133 178.454 5.184 178.518 5.6C178.593 6.00533 178.63 6.43733 178.63 6.896V12ZM180.285 13.552L180.669 11.904H180.093V9.952H181.677V11.904L181.117 13.552H180.285ZM187.946 12.08C187.039 12.08 186.271 11.9253 185.642 11.616C185.023 11.3067 184.522 10.8853 184.138 10.352C183.764 9.81867 183.487 9.21067 183.306 8.528C183.135 7.84533 183.05 7.136 183.05 6.4V0.639999H184.842V6.4C184.842 6.92267 184.895 7.42933 185.002 7.92C185.108 8.4 185.279 8.832 185.514 9.216C185.748 9.6 186.063 9.904 186.458 10.128C186.863 10.352 187.359 10.464 187.946 10.464C188.543 10.464 189.039 10.352 189.434 10.128C189.839 9.89333 190.154 9.584 190.378 9.2C190.612 8.80533 190.783 8.368 190.89 7.888C190.996 7.408 191.05 6.912 191.05 6.4V0.639999H192.858V6.4C192.858 7.17867 192.762 7.91467 192.57 8.608C192.388 9.29067 192.1 9.89333 191.706 10.416C191.322 10.928 190.82 11.3333 190.202 11.632C189.583 11.9307 188.831 12.08 187.946 12.08ZM201.461 3.312C201.354 3.19467 201.2 3.072 200.997 2.944C200.794 2.80533 200.554 2.67733 200.277 2.56C200 2.44267 199.701 2.34667 199.381 2.272C199.061 2.19733 198.73 2.16 198.389 2.16C197.642 2.16 197.088 2.29867 196.725 2.576C196.362 2.85333 196.181 3.23733 196.181 3.728C196.181 4.09067 196.282 4.37867 196.485 4.592C196.688 4.79467 196.997 4.96533 197.413 5.104C197.829 5.24267 198.352 5.392 198.981 5.552C199.749 5.73333 200.416 5.952 200.981 6.208C201.546 6.45333 201.978 6.784 202.277 7.2C202.576 7.616 202.725 8.16533 202.725 8.848C202.725 9.424 202.618 9.92 202.405 10.336C202.192 10.752 201.893 11.0933 201.509 11.36C201.125 11.616 200.682 11.808 200.181 11.936C199.68 12.0533 199.141 12.112 198.565 12.112C198 12.112 197.434 12.0533 196.869 11.936C196.314 11.8187 195.781 11.648 195.269 11.424C194.768 11.1893 194.304 10.9067 193.877 10.576L194.693 9.04C194.832 9.17867 195.029 9.33333 195.285 9.504C195.552 9.664 195.856 9.81867 196.197 9.968C196.549 10.1173 196.928 10.2453 197.333 10.352C197.749 10.448 198.17 10.496 198.597 10.496C199.312 10.496 199.856 10.3733 200.229 10.128C200.613 9.872 200.805 9.50933 200.805 9.04C200.805 8.656 200.682 8.352 200.437 8.128C200.192 7.89333 199.834 7.696 199.365 7.536C198.896 7.376 198.336 7.216 197.685 7.056C196.938 6.85333 196.314 6.63467 195.813 6.4C195.312 6.15467 194.933 5.84533 194.677 5.472C194.432 5.088 194.309 4.60267 194.309 4.016C194.309 3.26933 194.49 2.64 194.853 2.128C195.216 1.60533 195.706 1.216 196.325 0.959999C196.954 0.693333 197.658 0.559999 198.437 0.559999C198.949 0.559999 199.434 0.618666 199.893 0.735999C200.352 0.842666 200.778 0.992 201.173 1.184C201.578 1.376 201.946 1.59467 202.277 1.84L201.461 3.312ZM207.068 0.639999H208.764L213.18 12H211.292L210.092 8.912H205.708L204.524 12H202.62L207.068 0.639999ZM209.74 7.584L207.916 2.608L206.028 7.584H209.74ZM222.91 10.416V12H216.798V10.416H219.07V4.832C218.974 4.96 218.824 5.09333 218.622 5.232C218.419 5.37067 218.19 5.504 217.934 5.632C217.688 5.74933 217.438 5.84533 217.182 5.92C216.926 5.99467 216.691 6.032 216.478 6.032V4.384C216.691 4.384 216.936 4.32 217.214 4.192C217.491 4.064 217.763 3.91467 218.03 3.744C218.307 3.56267 218.542 3.392 218.734 3.232C218.926 3.06133 219.038 2.93867 219.07 2.864H220.878V10.416H222.91ZM223.429 12C223.429 11.552 223.466 11.1413 223.541 10.768C223.616 10.384 223.744 10.0213 223.925 9.68C224.117 9.33867 224.378 9.01867 224.709 8.72C225.05 8.41067 225.482 8.11733 226.005 7.84C226.378 7.62667 226.73 7.44 227.061 7.28C227.392 7.10933 227.685 6.944 227.941 6.784C228.197 6.61333 228.394 6.432 228.533 6.24C228.682 6.048 228.757 5.82933 228.757 5.584C228.757 5.34933 228.693 5.13067 228.565 4.928C228.437 4.72533 228.245 4.56533 227.989 4.448C227.733 4.32 227.424 4.256 227.061 4.256C226.773 4.256 226.506 4.29333 226.261 4.368C226.026 4.44267 225.808 4.544 225.605 4.672C225.413 4.78933 225.237 4.92267 225.077 5.072C224.917 5.21067 224.778 5.34933 224.661 5.488L223.557 4.224C223.664 4.096 223.829 3.952 224.053 3.792C224.288 3.62133 224.565 3.456 224.885 3.296C225.216 3.12533 225.589 2.98667 226.005 2.88C226.421 2.76267 226.874 2.704 227.365 2.704C228.058 2.704 228.65 2.82133 229.141 3.056C229.632 3.28 230.005 3.59467 230.261 4C230.528 4.39467 230.661 4.84267 230.661 5.344C230.661 5.73867 230.581 6.08533 230.421 6.384C230.272 6.68267 230.074 6.94933 229.829 7.184C229.584 7.408 229.322 7.60533 229.045 7.776C228.778 7.936 228.528 8.08 228.293 8.208C227.877 8.41067 227.514 8.59733 227.205 8.768C226.906 8.93867 226.65 9.10933 226.437 9.28C226.224 9.44 226.048 9.61067 225.909 9.792C225.77 9.96267 225.653 10.1707 225.557 10.416H230.837V12H223.429ZM236.974 8.224C237.422 8.29867 237.812 8.46933 238.142 8.736C238.484 8.992 238.745 9.32267 238.926 9.728C239.108 10.1227 239.198 10.5707 239.198 11.072C239.198 11.7333 239.033 12.3093 238.702 12.8C238.382 13.2907 237.924 13.6693 237.326 13.936C236.729 14.2133 236.025 14.352 235.214 14.352C234.404 14.352 233.689 14.208 233.07 13.92C232.452 13.6427 231.956 13.2373 231.582 12.704L232.654 11.488C232.91 11.872 233.241 12.176 233.646 12.4C234.052 12.6347 234.564 12.752 235.182 12.752C235.876 12.752 236.414 12.6027 236.798 12.304C237.182 12.0053 237.374 11.5573 237.374 10.96C237.374 10.3413 237.161 9.856 236.734 9.504C236.318 9.152 235.689 8.976 234.846 8.976H234.414V7.6H234.894C235.609 7.6 236.158 7.43467 236.542 7.104C236.926 6.76267 237.118 6.336 237.118 5.824C237.118 5.48267 237.038 5.20533 236.878 4.992C236.729 4.768 236.516 4.60267 236.238 4.496C235.961 4.38933 235.641 4.336 235.278 4.336C234.734 4.336 234.254 4.45333 233.838 4.688C233.422 4.92267 233.092 5.25867 232.846 5.696L231.742 4.496C231.956 4.15467 232.249 3.856 232.622 3.6C232.996 3.344 233.422 3.14667 233.902 3.008C234.393 2.85867 234.91 2.784 235.454 2.784C236.158 2.784 236.777 2.90133 237.31 3.136C237.844 3.37067 238.254 3.70133 238.542 4.128C238.841 4.55467 238.99 5.056 238.99 5.632C238.99 6.048 238.91 6.44267 238.75 6.816C238.59 7.17867 238.356 7.488 238.046 7.744C237.737 7.98933 237.38 8.14933 236.974 8.224ZM244.616 14.032V11.488H239.704V9.92L245.176 2.864H246.376V9.888H247.784V11.488H246.376V14.032H244.616ZM241.496 9.888H244.808V5.552L241.496 9.888ZM252.075 14.384C251.253 14.384 250.517 14.1973 249.867 13.824C249.216 13.4613 248.72 12.9653 248.379 12.336L249.435 11.328C249.733 11.7867 250.117 12.1493 250.587 12.416C251.056 12.6933 251.557 12.832 252.091 12.832C252.528 12.832 252.917 12.736 253.259 12.544C253.6 12.3627 253.867 12.1067 254.059 11.776C254.261 11.4347 254.363 11.0453 254.363 10.608C254.363 10.1813 254.267 9.808 254.075 9.488C253.883 9.15733 253.627 8.90667 253.307 8.736C252.987 8.55467 252.619 8.464 252.203 8.464C251.797 8.464 251.419 8.55467 251.067 8.736C250.715 8.91733 250.427 9.17333 250.203 9.504H248.651L249.947 2.864H255.499V4.48H251.227L250.651 7.584C250.832 7.392 251.077 7.23733 251.387 7.12C251.696 6.992 252.048 6.928 252.443 6.928C253.157 6.928 253.792 7.088 254.347 7.408C254.912 7.71733 255.355 8.144 255.675 8.688C256.005 9.232 256.171 9.86133 256.171 10.576C256.171 11.3333 255.989 11.9947 255.627 12.56C255.264 13.136 254.773 13.584 254.155 13.904C253.536 14.224 252.843 14.384 252.075 14.384ZM260.307 6.464C260.307 7.15733 260.206 7.86667 260.003 8.592C259.801 9.30667 259.523 10.0107 259.171 10.704C258.819 11.3973 258.419 12.08 257.971 12.752L256.675 12.096C257.273 11.1147 257.753 10.1493 258.115 9.2C258.489 8.25067 258.675 7.35467 258.675 6.512C258.675 5.968 258.606 5.41333 258.467 4.848C258.329 4.272 258.147 3.712 257.923 3.168C257.71 2.61333 257.486 2.112 257.251 1.664C257.027 1.216 256.825 0.853333 256.643 0.575999L257.987 -9.53674e-07C258.638 1.09867 259.187 2.18133 259.635 3.248C260.083 4.304 260.307 5.376 260.307 6.464Z" fill="white"/>
</svg>
