<svg width="30" height="30" viewBox="0 0 30 30" fill="none" xmlns="http://www.w3.org/2000/svg">
<g filter="url(#filter0_d_5_3753)">
<path d="M21 1H9C6.79086 1 5 2.79086 5 5V17C5 19.2091 6.79086 21 9 21H13.5V14H10V11H13.5V9C13.5 6.79086 15.2909 5 17.5 5H20V8H17.5C16.9477 8 16.5 8.44772 16.5 9V11H20V14H16.5V21H21C23.2091 21 25 19.2091 25 17V5C25 2.79086 23.2091 1 21 1Z" stroke="#848484" stroke-width="1.5" stroke-linecap="round" stroke-linejoin="round" shape-rendering="crispEdges"/>
</g>
<defs>
<filter id="filter0_d_5_3753" x="0.25" y="0.25" width="29.5" height="29.5" filterUnits="userSpaceOnUse" color-interpolation-filters="sRGB">
<feFlood flood-opacity="0" result="BackgroundImageFix"/>
<feColorMatrix in="SourceAlpha" type="matrix" values="0 0 0 0 0 0 0 0 0 0 0 0 0 0 0 0 0 0 127 0" result="hardAlpha"/>
<feOffset dy="4"/>
<feGaussianBlur stdDeviation="2"/>
<feComposite in2="hardAlpha" operator="out"/>
<feColorMatrix type="matrix" values="0 0 0 0 0 0 0 0 0 0 0 0 0 0 0 0 0 0 0.25 0"/>
<feBlend mode="normal" in2="BackgroundImageFix" result="effect1_dropShadow_5_3753"/>
<feBlend mode="normal" in="SourceGraphic" in2="effect1_dropShadow_5_3753" result="shape"/>
</filter>
</defs>
</svg>
