<svg width="18" height="14" viewBox="0 0 18 14" fill="none" xmlns="http://www.w3.org/2000/svg">
<path fill-rule="evenodd" clip-rule="evenodd" d="M7.53032 0.470072C7.67077 0.610698 7.74966 0.801322 7.74966 1.00007C7.74966 1.19882 7.67077 1.38945 7.53032 1.53007L2.81032 6.25007H17.0003C17.1992 6.25007 17.39 6.32909 17.5306 6.46974C17.6713 6.61039 17.7503 6.80116 17.7503 7.00007C17.7503 7.19898 17.6713 7.38975 17.5306 7.5304C17.39 7.67105 17.1992 7.75007 17.0003 7.75007H2.81032L7.53032 12.4701C7.604 12.5387 7.66311 12.6215 7.7041 12.7135C7.74509 12.8055 7.76713 12.9048 7.76891 13.0056C7.77069 13.1063 7.75216 13.2063 7.71444 13.2997C7.67672 13.3931 7.62057 13.4779 7.54935 13.5491C7.47814 13.6203 7.3933 13.6765 7.29991 13.7142C7.20653 13.7519 7.1065 13.7704 7.00579 13.7687C6.90509 13.7669 6.80578 13.7448 6.71378 13.7039C6.62178 13.6629 6.53898 13.6038 6.47032 13.5301L0.470317 7.53007C0.329866 7.38945 0.250977 7.19882 0.250977 7.00007C0.250977 6.80132 0.329866 6.6107 0.470317 6.47007L6.47032 0.470072C6.61094 0.329622 6.80157 0.250732 7.00032 0.250732C7.19907 0.250732 7.38969 0.329622 7.53032 0.470072Z" fill="white"/>
</svg>
