<svg width="24" height="24" viewBox="0 0 24 24" fill="none" xmlns="http://www.w3.org/2000/svg">
<path d="M12.75 6C12.75 5.80109 12.671 5.61032 12.5303 5.46967C12.3897 5.32902 12.1989 5.25 12 5.25C11.8011 5.25 11.6103 5.32902 11.4697 5.46967C11.329 5.61032 11.25 5.80109 11.25 6V10C11.25 10.1989 11.329 10.3897 11.4697 10.5303C11.6103 10.671 11.8011 10.75 12 10.75C12.1989 10.75 12.3897 10.671 12.5303 10.5303C12.671 10.3897 12.75 10.1989 12.75 10V6Z" fill="white"/>
<path fill-rule="evenodd" clip-rule="evenodd" d="M4.25009 9C4.25009 6.94457 5.0666 4.97333 6.52001 3.51992C7.97342 2.06652 9.94466 1.25 12.0001 1.25C14.0555 1.25 16.0268 2.06652 17.4802 3.51992C18.9336 4.97333 19.7501 6.94457 19.7501 9V9.704C19.7501 10.401 19.9561 11.082 20.3431 11.662L21.4911 13.385C22.8251 15.385 21.8071 18.103 19.4881 18.735C18.7331 18.941 17.9711 19.115 17.2041 19.258L17.2021 19.263C16.4331 21.315 14.3781 22.75 12.0001 22.75C9.62209 22.75 7.56709 21.315 6.79809 19.263L6.79609 19.258C6.0279 19.1151 5.26592 18.9406 4.51209 18.735C2.19309 18.103 1.17509 15.385 2.50909 13.385L3.65709 11.662C4.04369 11.0822 4.25003 10.4009 4.25009 9.704V9ZM8.62309 19.537C10.8661 19.805 13.1331 19.805 15.3761 19.537C14.6661 20.558 13.4291 21.25 12.0001 21.25C10.5711 21.25 9.33409 20.558 8.62309 19.537ZM12.0001 2.75C10.3425 2.75 8.75277 3.40848 7.58067 4.58058C6.40857 5.75269 5.75009 7.3424 5.75009 9V9.704C5.75 10.697 5.45598 11.6678 4.90509 12.494L3.75709 14.217C3.57942 14.4835 3.46763 14.7883 3.43092 15.1065C3.39421 15.4246 3.43363 15.747 3.54595 16.0469C3.65826 16.3468 3.84024 16.6157 4.0769 16.8315C4.31355 17.0473 4.5981 17.2038 4.90709 17.288C9.55128 18.5546 14.4499 18.5546 19.0941 17.288C19.4031 17.2039 19.6876 17.0476 19.9243 16.8319C20.1609 16.6162 20.3429 16.3473 20.4553 16.0475C20.5676 15.7476 20.607 15.4254 20.5703 15.1073C20.5336 14.7892 20.4218 14.4844 20.2441 14.218L19.0941 12.494C18.5435 11.6677 18.2499 10.6969 18.2501 9.704V9C18.2501 7.3424 17.5916 5.75269 16.4195 4.58058C15.2474 3.40848 13.6577 2.75 12.0001 2.75Z" fill="white"/>
</svg>
