<svg width="24" height="24" viewBox="0 0 24 24" fill="none" xmlns="http://www.w3.org/2000/svg">
<path fill-rule="evenodd" clip-rule="evenodd" d="M18.25 7C18.25 7.49246 18.153 7.98009 17.9645 8.43506C17.7761 8.89003 17.4999 9.30343 17.1517 9.65165C16.8034 9.99987 16.39 10.2761 15.9351 10.4645C15.4801 10.653 14.9925 10.75 14.5 10.75C14.0075 10.75 13.5199 10.653 13.0649 10.4645C12.61 10.2761 12.1966 9.99987 11.8483 9.65165C11.5001 9.30343 11.2239 8.89003 11.0355 8.43506C10.847 7.98009 10.75 7.49246 10.75 7C10.75 6.00544 11.1451 5.05161 11.8483 4.34835C12.5516 3.64509 13.5054 3.25 14.5 3.25C15.4946 3.25 16.4484 3.64509 17.1516 4.34835C17.8549 5.05161 18.25 6.00544 18.25 7ZM14.5 9.25C14.7955 9.25 15.0881 9.1918 15.361 9.07873C15.634 8.96566 15.8821 8.79992 16.091 8.59099C16.2999 8.38206 16.4657 8.13402 16.5787 7.86104C16.6918 7.58806 16.75 7.29547 16.75 7C16.75 6.70453 16.6918 6.41194 16.5787 6.13896C16.4657 5.86598 16.2999 5.61794 16.091 5.40901C15.8821 5.20008 15.634 5.03434 15.361 4.92127C15.0881 4.8082 14.7955 4.75 14.5 4.75C13.9033 4.75 13.331 4.98705 12.909 5.40901C12.4871 5.83097 12.25 6.40326 12.25 7C12.25 7.59674 12.4871 8.16903 12.909 8.59099C13.331 9.01295 13.9033 9.25 14.5 9.25ZM5.75 17C5.75 17.9946 6.14509 18.9484 6.84835 19.6517C7.55161 20.3549 8.50544 20.75 9.5 20.75C10.4946 20.75 11.4484 20.3549 12.1517 19.6517C12.8549 18.9484 13.25 17.9946 13.25 17C13.25 16.0054 12.8549 15.0516 12.1517 14.3483C11.4484 13.6451 10.4946 13.25 9.5 13.25C8.50544 13.25 7.55161 13.6451 6.84835 14.3483C6.14509 15.0516 5.75 16.0054 5.75 17ZM9.5 19.25C8.90326 19.25 8.33097 19.0129 7.90901 18.591C7.48705 18.169 7.25 17.5967 7.25 17C7.25 16.4033 7.48705 15.831 7.90901 15.409C8.33097 14.9871 8.90326 14.75 9.5 14.75C10.0967 14.75 10.669 14.9871 11.091 15.409C11.5129 15.831 11.75 16.4033 11.75 17C11.75 17.5967 11.5129 18.169 11.091 18.591C10.669 19.0129 10.0967 19.25 9.5 19.25Z" fill="white"/>
<path d="M14.25 16.959C14.25 16.7601 14.329 16.5693 14.4697 16.4287C14.6103 16.288 14.8011 16.209 15 16.209H22C22.1989 16.209 22.3897 16.288 22.5303 16.4287C22.671 16.5693 22.75 16.7601 22.75 16.959C22.75 17.1579 22.671 17.3487 22.5303 17.4893C22.3897 17.63 22.1989 17.709 22 17.709H15C14.8011 17.709 14.6103 17.63 14.4697 17.4893C14.329 17.3487 14.25 17.1579 14.25 16.959ZM9 6.20898C9.19891 6.20898 9.38968 6.288 9.53033 6.42865C9.67098 6.56931 9.75 6.76007 9.75 6.95898C9.75 7.1579 9.67098 7.34866 9.53033 7.48931C9.38968 7.62997 9.19891 7.70898 9 7.70898H2C1.80109 7.70898 1.61032 7.62997 1.46967 7.48931C1.32902 7.34866 1.25 7.1579 1.25 6.95898C1.25 6.76007 1.32902 6.56931 1.46967 6.42865C1.61032 6.288 1.80109 6.20898 2 6.20898H9ZM1.25 16.959C1.25 16.7601 1.32902 16.5693 1.46967 16.4287C1.61032 16.288 1.80109 16.209 2 16.209H4C4.19891 16.209 4.38968 16.288 4.53033 16.4287C4.67098 16.5693 4.75 16.7601 4.75 16.959C4.75 17.1579 4.67098 17.3487 4.53033 17.4893C4.38968 17.63 4.19891 17.709 4 17.709H2C1.80109 17.709 1.61032 17.63 1.46967 17.4893C1.32902 17.3487 1.25 17.1579 1.25 16.959ZM22 6.20898C22.1989 6.20898 22.3897 6.288 22.5303 6.42865C22.671 6.56931 22.75 6.76007 22.75 6.95898C22.75 7.1579 22.671 7.34866 22.5303 7.48931C22.3897 7.62997 22.1989 7.70898 22 7.70898H20C19.8011 7.70898 19.6103 7.62997 19.4697 7.48931C19.329 7.34866 19.25 7.1579 19.25 6.95898C19.25 6.76007 19.329 6.56931 19.4697 6.42865C19.6103 6.288 19.8011 6.20898 20 6.20898H22Z" fill="white"/>
</svg>
