<svg width="22" height="12" viewBox="0 0 22 12" fill="none" xmlns="http://www.w3.org/2000/svg">
<path fill-rule="evenodd" clip-rule="evenodd" d="M21.2949 0.310106C21.3856 0.348892 21.4677 0.405182 21.5366 0.475754C21.6055 0.546326 21.6598 0.629795 21.6964 0.721382C21.733 0.812968 21.7512 0.910874 21.7499 1.00949C21.7486 1.10811 21.7279 1.20551 21.6889 1.29611L20.9999 1.00011L21.6899 1.29611L21.6879 1.30011L21.6849 1.30711L21.6749 1.33111L21.6359 1.41511C21.4177 1.86831 21.175 2.30929 20.9089 2.73611C20.3754 3.59403 19.757 4.39607 19.0629 5.13011L20.0309 6.09911C20.1634 6.24128 20.2355 6.42933 20.232 6.62363C20.2286 6.81793 20.1499 7.00332 20.0125 7.14073C19.8751 7.27814 19.6897 7.35685 19.4954 7.36028C19.3011 7.36371 19.1131 7.29159 18.9709 7.15911L17.9699 6.15911C17.2736 6.74603 16.5102 7.24852 15.6959 7.65611L16.6299 9.09111C16.7383 9.25793 16.7761 9.46101 16.7349 9.65567C16.6936 9.85033 16.5767 10.0206 16.4099 10.1291C16.2431 10.2376 16.04 10.2753 15.8453 10.2341C15.6506 10.1928 15.4803 10.0759 15.3719 9.90911L14.2829 8.23511C13.5029 8.49011 12.6599 8.66311 11.7509 8.72511V10.5001C11.7509 10.699 11.6719 10.8898 11.5312 11.0304C11.3906 11.1711 11.1998 11.2501 11.0009 11.2501C10.802 11.2501 10.6112 11.1711 10.4705 11.0304C10.3299 10.8898 10.2509 10.699 10.2509 10.5001V8.72511C9.41517 8.66883 8.58926 8.51237 7.79087 8.25911L6.71687 9.90911C6.66316 9.99171 6.59371 10.0629 6.51248 10.1187C6.43124 10.1744 6.33983 10.2137 6.24344 10.2341C6.14705 10.2545 6.04758 10.2558 5.95072 10.2377C5.85385 10.2197 5.76148 10.1828 5.67887 10.1291C5.51205 10.0206 5.39515 9.85033 5.3539 9.65567C5.33347 9.55928 5.33222 9.45982 5.35024 9.36295C5.36825 9.26608 5.40516 9.17371 5.45887 9.09111L6.37187 7.68911C5.55101 7.28538 4.78124 6.78518 4.07887 6.19911L3.11887 7.15911C2.97749 7.29579 2.78807 7.37148 2.59142 7.36986C2.39477 7.36825 2.20662 7.28946 2.0675 7.15047C1.92838 7.01148 1.84942 6.8234 1.84761 6.62676C1.84581 6.43011 1.92132 6.24062 2.05787 6.09911L2.98187 5.17511C1.99986 4.14603 1.1689 2.98276 0.513874 1.72011C0.448288 1.59221 0.385605 1.46284 0.325874 1.33211L0.315874 1.30711L0.311874 1.30011V1.29711H0.309874C0.23137 1.11424 0.228725 0.906677 0.302521 0.72186C0.376316 0.537043 0.520508 0.389111 0.703374 0.310607C0.886241 0.232103 1.0928 0.229457 1.27762 0.303253C1.46244 0.377048 1.61037 0.52124 1.68887 0.704107V0.706106L1.69587 0.720106L1.72487 0.783107C1.92008 1.18692 2.13706 1.57983 2.37487 1.96011C2.84987 2.72011 3.57187 3.70711 4.55487 4.62211C5.42187 5.42711 6.48287 6.16811 7.75187 6.65611C8.78846 7.05338 9.88978 7.25479 10.9999 7.25011C12.1331 7.255 13.2569 7.04496 14.3119 6.63111C15.5739 6.13411 16.6279 5.38811 17.4869 4.58211C18.6353 3.49156 19.5798 2.20469 20.2759 0.782107L20.3039 0.719106L20.3099 0.706106M21.2949 0.310106C21.1121 0.232006 20.9058 0.230632 20.7214 0.304506C20.5369 0.378381 20.3892 0.522462 20.3109 0.705106L21.2949 0.310106Z" fill="#848484"/>
</svg>
