<svg width="24" height="24" viewBox="0 0 24 24" fill="none" xmlns="http://www.w3.org/2000/svg">
<path fill-rule="evenodd" clip-rule="evenodd" d="M12 2.75C9.54675 2.75 7.19398 3.72455 5.45927 5.45926C3.72456 7.19397 2.75001 9.54675 2.75001 12C2.75001 13.481 3.09801 14.879 3.71501 16.118C3.96301 16.616 4.05801 17.21 3.90201 17.795L3.30601 20.02C3.28098 20.1132 3.28093 20.2114 3.30586 20.3046C3.33078 20.3979 3.37981 20.4829 3.448 20.5512C3.5162 20.6195 3.60117 20.6687 3.69438 20.6937C3.78759 20.7188 3.88575 20.7189 3.97901 20.694L6.20601 20.098C6.76879 19.954 7.36481 20.0205 7.88201 20.285C9.1612 20.9218 10.5711 21.2522 12 21.25C14.4533 21.25 16.806 20.2754 18.5407 18.5407C20.2755 16.806 21.25 14.4533 21.25 12C21.25 9.54675 20.2755 7.19397 18.5407 5.45926C16.806 3.72455 14.4533 2.75 12 2.75ZM1.25001 12C1.25001 6.063 6.06301 1.25 12 1.25C17.937 1.25 22.75 6.063 22.75 12C22.75 17.937 17.937 22.75 12 22.75C10.282 22.75 8.65601 22.346 7.21301 21.628C7.02295 21.5268 6.80253 21.4984 6.59301 21.548L4.36701 22.143C2.84301 22.551 1.44901 21.157 1.85701 19.633L2.45301 17.407C2.50265 17.1975 2.47421 16.9771 2.37301 16.787C1.63246 15.3 1.248 13.6612 1.25001 12ZM12 7.25C12.1989 7.25 12.3897 7.32902 12.5303 7.46967C12.671 7.61032 12.75 7.80109 12.75 8V16C12.75 16.1989 12.671 16.3897 12.5303 16.5303C12.3897 16.671 12.1989 16.75 12 16.75C11.8011 16.75 11.6103 16.671 11.4697 16.5303C11.329 16.3897 11.25 16.1989 11.25 16V8C11.25 7.80109 11.329 7.61032 11.4697 7.46967C11.6103 7.32902 11.8011 7.25 12 7.25ZM8.00001 9.25C8.19892 9.25 8.38969 9.32902 8.53034 9.46967C8.67099 9.61032 8.75001 9.80109 8.75001 10V14C8.75001 14.1989 8.67099 14.3897 8.53034 14.5303C8.38969 14.671 8.19892 14.75 8.00001 14.75C7.8011 14.75 7.61033 14.671 7.46968 14.5303C7.32903 14.3897 7.25001 14.1989 7.25001 14V10C7.25001 9.80109 7.32903 9.61032 7.46968 9.46967C7.61033 9.32902 7.8011 9.25 8.00001 9.25ZM16 9.25C16.1989 9.25 16.3897 9.32902 16.5303 9.46967C16.671 9.61032 16.75 9.80109 16.75 10V14C16.75 14.1989 16.671 14.3897 16.5303 14.5303C16.3897 14.671 16.1989 14.75 16 14.75C15.8011 14.75 15.6103 14.671 15.4697 14.5303C15.329 14.3897 15.25 14.1989 15.25 14V10C15.25 9.80109 15.329 9.61032 15.4697 9.46967C15.6103 9.32902 15.8011 9.25 16 9.25Z" fill="#646464"/>
</svg>
