<svg width="24" height="25" viewBox="0 0 24 25" fill="none" xmlns="http://www.w3.org/2000/svg">
<path d="M2 4.95557C2 3.851 2.89543 2.95557 4 2.95557H8C9.10457 2.95557 10 3.851 10 4.95557V6.95557C10 8.06014 9.10457 8.95557 8 8.95557H4C2.89543 8.95557 2 8.06014 2 6.95557V4.95557Z" stroke="#B4B4B4" stroke-width="1.5" stroke-linejoin="round"/>
<path d="M2 14.9556C2 13.851 2.89543 12.9556 4 12.9556H8C9.10457 12.9556 10 13.851 10 14.9556V20.9556C10 22.0601 9.10457 22.9556 8 22.9556H4C2.89543 22.9556 2 22.0601 2 20.9556V14.9556Z" stroke="#B4B4B4" stroke-width="1.5" stroke-linejoin="round"/>
<path d="M14 4.95557C14 3.851 14.8954 2.95557 16 2.95557H20C21.1046 2.95557 22 3.851 22 4.95557V10.9556C22 12.0601 21.1046 12.9556 20 12.9556H16C14.8954 12.9556 14 12.0601 14 10.9556V4.95557Z" stroke="#B4B4B4" stroke-width="1.5" stroke-linejoin="round"/>
<path d="M14 18.9556C14 17.851 14.8954 16.9556 16 16.9556H20C21.1046 16.9556 22 17.851 22 18.9556V20.9556C22 22.0601 21.1046 22.9556 20 22.9556H16C14.8954 22.9556 14 22.0601 14 20.9556V18.9556Z" stroke="#B4B4B4" stroke-width="1.5" stroke-linejoin="round"/>
</svg>
