<svg width="114" height="114" viewBox="0 0 114 114" fill="none" xmlns="http://www.w3.org/2000/svg">
<path fill-rule="evenodd" clip-rule="evenodd" d="M49.685 5.9375H64.315C71.9293 5.9375 77.9 5.9375 82.669 6.38875C87.5283 6.85425 91.5088 7.81375 95.019 9.96075C98.6956 12.2133 101.787 15.3044 104.039 18.981C106.186 22.4865 107.146 26.4718 107.611 31.331C108.063 36.1 108.063 42.0708 108.063 49.6898V54.758C108.063 60.1777 108.063 64.429 107.825 67.8632C107.588 71.3545 107.098 74.2615 105.982 76.95C104.609 80.2639 102.598 83.2749 100.061 85.8112C97.5249 88.3475 94.5139 90.3594 91.2 91.732C87.3763 93.3185 83.0253 93.67 77.0593 93.7745C75.5866 93.7682 74.1143 93.8252 72.6465 93.9455C71.706 94.05 71.3403 94.202 71.1265 94.3255C70.9033 94.4585 70.5945 94.696 70.0625 95.4275C69.4878 96.216 68.837 97.3085 67.8015 99.0565L65.227 103.408C61.5553 109.616 52.4495 109.616 48.773 103.408L46.1985 99.0565C45.4965 97.8154 44.7422 96.6046 43.9375 95.4275C43.4055 94.696 43.0968 94.4585 42.8735 94.3255C42.6598 94.202 42.294 94.05 41.3535 93.9455C40.3465 93.8363 39.026 93.803 36.936 93.7697C30.9748 93.67 26.6238 93.3185 22.8 91.732C19.4861 90.3594 16.4751 88.3475 13.9388 85.8112C11.4025 83.2749 9.39059 80.2639 8.018 76.95C6.90175 74.2615 6.4125 71.3545 6.17025 67.8632C5.9375 64.429 5.9375 60.1778 5.9375 54.7533V49.6898C5.9375 42.0708 5.9375 36.1048 6.38875 31.331C6.85425 26.4718 7.81375 22.4865 9.96075 18.981C12.2133 15.3044 15.3044 12.2133 18.981 9.96075C22.4865 7.81375 26.4718 6.85425 31.331 6.38875C36.1 5.9375 42.0708 5.9375 49.6898 5.9375M32.0103 13.4852C27.6688 13.8985 24.909 14.687 22.705 16.036C19.9866 17.7013 17.7013 19.9866 16.036 22.705C14.687 24.909 13.8985 27.6687 13.4853 32.015C13.0673 36.404 13.0625 42.0375 13.0625 49.8798V54.6298C13.0625 60.211 13.0625 64.22 13.281 67.3835C13.4948 70.5137 13.9033 72.5563 14.6015 74.2282C16.6504 79.1745 20.5802 83.1043 25.5265 85.1533C27.9728 86.1698 31.0983 86.5498 37.0643 86.6543H37.2115C39.102 86.6875 40.7598 86.716 42.1373 86.868C43.6145 87.0342 45.0633 87.362 46.455 88.1695C47.8325 88.977 48.83 90.0458 49.6945 91.2333C50.4973 92.3353 51.319 93.727 52.25 95.2992L54.9053 99.7832C55.1273 100.139 55.436 100.432 55.8025 100.635C56.1689 100.838 56.581 100.944 57 100.944C57.419 100.944 57.8311 100.838 58.1975 100.635C58.564 100.432 58.8727 100.139 59.0948 99.7832L61.75 95.2992C62.681 93.727 63.5075 92.3353 64.3055 91.2333C65.17 90.0458 66.1675 88.9723 67.545 88.1695C68.9368 87.362 70.3855 87.0295 71.8628 86.868C73.2403 86.716 74.898 86.6875 76.7885 86.6543H76.9405C82.9018 86.5498 86.0273 86.1698 88.4735 85.1533C93.4198 83.1043 97.3496 79.1745 99.3985 74.2282C100.097 72.5563 100.505 70.5137 100.719 67.3835C100.938 64.22 100.938 60.211 100.938 54.6298V49.8798C100.938 42.0375 100.938 36.404 100.515 32.0103C100.102 27.6687 99.313 24.909 97.964 22.705C96.2995 19.9889 94.0159 17.7052 91.2998 16.0408C89.0958 14.6918 86.336 13.9032 81.9898 13.49C77.6008 13.072 71.9673 13.0672 64.125 13.0672H49.875C42.0328 13.0672 36.3993 13.0672 32.0055 13.49M57 29.6875C57.9448 29.6875 58.851 30.0628 59.5191 30.7309C60.1872 31.399 60.5625 32.3052 60.5625 33.25V71.25C60.5625 72.1948 60.1872 73.101 59.5191 73.7691C58.851 74.4372 57.9448 74.8125 57 74.8125C56.0552 74.8125 55.149 74.4372 54.4809 73.7691C53.8128 73.101 53.4375 72.1948 53.4375 71.25V33.25C53.4375 32.3052 53.8128 31.399 54.4809 30.7309C55.149 30.0628 56.0552 29.6875 57 29.6875ZM38 39.1875C38.9448 39.1875 39.851 39.5628 40.5191 40.2309C41.1872 40.899 41.5625 41.8052 41.5625 42.75V61.75C41.5625 62.6948 41.1872 63.601 40.5191 64.2691C39.851 64.9372 38.9448 65.3125 38 65.3125C37.0552 65.3125 36.149 64.9372 35.4809 64.2691C34.8128 63.601 34.4375 62.6948 34.4375 61.75V42.75C34.4375 41.8052 34.8128 40.899 35.4809 40.2309C36.149 39.5628 37.0552 39.1875 38 39.1875ZM76 39.1875C76.9448 39.1875 77.851 39.5628 78.5191 40.2309C79.1872 40.899 79.5625 41.8052 79.5625 42.75V61.75C79.5625 62.6948 79.1872 63.601 78.5191 64.2691C77.851 64.9372 76.9448 65.3125 76 65.3125C75.0552 65.3125 74.149 64.9372 73.4809 64.2691C72.8128 63.601 72.4375 62.6948 72.4375 61.75V42.75C72.4375 41.8052 72.8128 40.899 73.4809 40.2309C74.149 39.5628 75.0552 39.1875 76 39.1875Z" fill="#646464" fill-opacity="0.2"/>
</svg>
