<svg width="24" height="25" viewBox="0 0 24 25" fill="none" xmlns="http://www.w3.org/2000/svg">
<path d="M13.9999 16.9556H16.1264C17.3135 16.9556 18.4393 17.4829 19.1992 18.3948L20.2662 19.6752C21.3518 20.9779 20.4254 22.9556 18.7298 22.9556H5.26994C3.57426 22.9556 2.64795 20.9779 3.73349 19.6752L4.80047 18.3948C5.56044 17.4829 6.68623 16.9556 7.87335 16.9556H9.99985" stroke="#B4B4B4" stroke-width="1.5" stroke-linecap="round" stroke-linejoin="round"/>
<path d="M12 6.95557C13.1046 6.95557 14 6.06014 14 4.95557C14 3.851 13.1046 2.95557 12 2.95557C10.8954 2.95557 10 3.851 10 4.95557C10 6.06014 10.8954 6.95557 12 6.95557ZM12 6.95557C14.2091 6.95557 16 8.74643 16 10.9556V12.9556C16 13.5079 15.5523 13.9556 15 13.9556C14.4477 13.9556 14 14.4033 14 14.9556V17.9556C14 19.0601 13.1046 19.9556 12 19.9556C10.8954 19.9556 10 19.0601 10 17.9556V14.9556C10 14.4033 9.55228 13.9556 9 13.9556C8.44772 13.9556 8 13.5079 8 12.9556V10.9556C8 8.74643 9.79086 6.95557 12 6.95557Z" stroke="#B4B4B4" stroke-width="1.5" stroke-linejoin="round"/>
</svg>
