<svg width="24" height="24" viewBox="0 0 24 24" fill="none" xmlns="http://www.w3.org/2000/svg">
<path fill-rule="evenodd" clip-rule="evenodd" d="M20.924 11.75H18.23C16.806 11.75 15.749 12.809 15.749 14C15.749 15.191 16.806 16.25 18.229 16.25H20.947C21.153 16.237 21.242 16.098 21.249 16.014V11.986C21.242 11.902 21.153 11.763 20.947 11.751L20.924 11.75ZM20.85 10.25C20.916 10.25 20.98 10.25 21.04 10.254C21.91 10.307 22.681 10.964 22.746 11.882C22.75 11.942 22.75 12.007 22.75 12.067V15.933C22.75 15.993 22.75 16.058 22.746 16.118C22.681 17.036 21.91 17.693 21.039 17.747C20.98 17.75 20.916 17.75 20.849 17.75H18.231C16.086 17.75 14.25 16.122 14.25 14C14.25 11.878 16.086 10.25 18.23 10.25H20.833H20.85Z" fill="#646464"/>
<path d="M19 14C19 14.2652 18.8946 14.5196 18.7071 14.7071C18.5196 14.8946 18.2652 15 18 15C17.7348 15 17.4804 14.8946 17.2929 14.7071C17.1054 14.5196 17 14.2652 17 14C17 13.7348 17.1054 13.4804 17.2929 13.2929C17.4804 13.1054 17.7348 13 18 13C18.2652 13 18.5196 13.1054 18.7071 13.2929C18.8946 13.4804 19 13.7348 19 14Z" fill="#646464"/>
<path fill-rule="evenodd" clip-rule="evenodd" d="M20.85 10.2501C21.1369 10.2393 21.4225 10.294 21.685 10.4101C21.578 8.80412 21.283 7.56612 20.359 6.64112C19.61 5.89312 18.661 5.56112 17.489 5.40312L17.447 5.39812C17.4365 5.39018 17.4259 5.38251 17.415 5.37512L13.679 2.89812C13.031 2.4752 12.2738 2.25 11.5 2.25C10.7262 2.25 9.96905 2.4752 9.321 2.89812L5.586 5.37512C5.5748 5.3825 5.5638 5.39017 5.553 5.39812L5.511 5.40312C4.339 5.56112 3.39 5.89312 2.641 6.64112C1.893 7.39012 1.561 8.33912 1.403 9.51112C1.25 10.6511 1.25 12.1061 1.25 13.9441V14.0561C1.25 15.8941 1.25 17.3501 1.403 18.4891C1.561 19.6611 1.893 20.6101 2.641 21.3591C3.39 22.1071 4.339 22.4391 5.511 22.5971C6.651 22.7501 8.106 22.7501 9.944 22.7501H13.056C14.894 22.7501 16.35 22.7501 17.489 22.5971C18.661 22.4391 19.61 22.1071 20.359 21.3591C21.283 20.4341 21.578 19.1961 21.685 17.5891C21.483 17.6791 21.265 17.7331 21.039 17.7471C20.98 17.7501 20.916 17.7501 20.849 17.7501H20.168C20.054 19.0921 19.797 19.8001 19.298 20.2981C18.875 20.7211 18.295 20.9751 17.289 21.1101C16.262 21.2481 14.907 21.2501 13 21.2501H10C8.093 21.2501 6.739 21.2481 5.71 21.1101C4.705 20.9751 4.125 20.7211 3.702 20.2981C3.279 19.8751 3.025 19.2951 2.89 18.2891C2.752 17.2621 2.75 15.9071 2.75 14.0001C2.75 12.0931 2.752 10.7391 2.89 9.71012C3.025 8.70512 3.279 8.12512 3.702 7.70212C4.125 7.27912 4.705 7.02512 5.711 6.89012C6.739 6.75212 8.093 6.75012 10 6.75012H13C14.907 6.75012 16.262 6.75212 17.29 6.89012C18.295 7.02512 18.875 7.27912 19.298 7.70212C19.797 8.20012 20.054 8.90912 20.168 10.2501H20.833H20.85ZM9.944 5.25012H13.056C13.573 5.25012 14.059 5.25012 14.516 5.25312L12.85 4.14812C12.05 3.61812 10.95 3.61812 10.15 4.14812L8.483 5.25312C8.941 5.25012 9.427 5.25012 9.943 5.25012" fill="#646464"/>
<path d="M6 9.25C5.80109 9.25 5.61032 9.32902 5.46967 9.46967C5.32902 9.61032 5.25 9.80109 5.25 10C5.25 10.1989 5.32902 10.3897 5.46967 10.5303C5.61032 10.671 5.80109 10.75 6 10.75H10C10.1989 10.75 10.3897 10.671 10.5303 10.5303C10.671 10.3897 10.75 10.1989 10.75 10C10.75 9.80109 10.671 9.61032 10.5303 9.46967C10.3897 9.32902 10.1989 9.25 10 9.25H6Z" fill="#646464"/>
<path d="M19 14C19 14.2652 18.8946 14.5196 18.7071 14.7071C18.5196 14.8946 18.2652 15 18 15C17.7348 15 17.4804 14.8946 17.2929 14.7071C17.1054 14.5196 17 14.2652 17 14C17 13.7348 17.1054 13.4804 17.2929 13.2929C17.4804 13.1054 17.7348 13 18 13C18.2652 13 18.5196 13.1054 18.7071 13.2929C18.8946 13.4804 19 13.7348 19 14Z" fill="#646464"/>
</svg>
