<svg width="24" height="24" viewBox="0 0 24 24" fill="none" xmlns="http://www.w3.org/2000/svg">
<path fill-rule="evenodd" clip-rule="evenodd" d="M11.944 1.25H12.056C13.894 1.25 15.35 1.25 16.489 1.403C17.661 1.561 18.61 1.893 19.359 2.641C20.107 3.39 20.439 4.339 20.597 5.511C20.75 6.651 20.75 8.106 20.75 9.944V14.056C20.75 15.894 20.75 17.35 20.597 18.489C20.439 19.661 20.107 20.61 19.359 21.359C18.61 22.107 17.661 22.439 16.489 22.597C15.349 22.75 13.894 22.75 12.056 22.75H11.944C10.106 22.75 8.65 22.75 7.511 22.597C6.339 22.439 5.39 22.107 4.641 21.359C3.893 20.61 3.561 19.661 3.403 18.489C3.25 17.349 3.25 15.894 3.25 14.056V9.944C3.25 8.106 3.25 6.65 3.403 5.511C3.561 4.339 3.893 3.39 4.641 2.641C5.39 1.893 6.339 1.561 7.511 1.403C8.651 1.25 10.106 1.25 11.944 1.25ZM6.814 3.073C6.325 3.219 5.98 3.424 5.702 3.702C5.279 4.125 5.025 4.705 4.89 5.711C4.752 6.739 4.75 8.093 4.75 10V14C4.75 15.907 4.752 17.262 4.89 18.29C5.025 19.295 5.279 19.875 5.702 20.298C6.125 20.721 6.705 20.975 7.711 21.11C8.739 21.248 10.093 21.25 12 21.25C13.907 21.25 15.262 21.248 16.29 21.11C17.295 20.975 17.875 20.721 18.298 20.298C18.721 19.875 18.975 19.295 19.11 18.289C19.248 17.262 19.25 15.907 19.25 14V10C19.25 8.093 19.248 6.739 19.11 5.71C18.975 4.705 18.721 4.125 18.298 3.702C18.02 3.424 17.675 3.219 17.186 3.073C16.524 4.067 16.062 4.758 15.374 5.185C15.236 5.27 15.094 5.347 14.947 5.414C14.205 5.751 13.367 5.751 12.16 5.75C12.0533 5.74994 11.9467 5.74994 11.84 5.75C10.633 5.75 9.795 5.751 9.053 5.414C8.90588 5.34695 8.76325 5.27046 8.626 5.185C7.938 4.758 7.476 4.067 6.814 3.073ZM8.451 2.816C8.895 3.46 9.128 3.731 9.418 3.911C9.5 3.962 9.586 4.008 9.674 4.048C10.084 4.234 10.568 4.25 12 4.25C13.432 4.25 13.917 4.234 14.326 4.048C14.414 4.008 14.5 3.962 14.582 3.911C14.872 3.731 15.105 3.46 15.549 2.816C14.629 2.751 13.481 2.75 12 2.75C10.52 2.75 9.372 2.751 8.451 2.816ZM8.25 19C8.25 18.8011 8.32902 18.6103 8.46967 18.4697C8.61032 18.329 8.80109 18.25 9 18.25H15C15.1989 18.25 15.3897 18.329 15.5303 18.4697C15.671 18.6103 15.75 18.8011 15.75 19C15.75 19.1989 15.671 19.3897 15.5303 19.5303C15.3897 19.671 15.1989 19.75 15 19.75H9C8.80109 19.75 8.61032 19.671 8.46967 19.5303C8.32902 19.3897 8.25 19.1989 8.25 19Z" fill="white"/>
</svg>
