<svg width="143" height="143" viewBox="0 0 143 143" fill="none" xmlns="http://www.w3.org/2000/svg">
<circle cx="70" cy="70" r="69.5" fill="#08080A" stroke="#1E1E1E"/>
<circle cx="120" cy="120" r="23" fill="#040406"/>
<circle cx="120" cy="120" r="19.5" fill="#08080A" stroke="#1E1E1E"/>
<path d="M69.9997 64.6666C75.8907 64.6666 80.6663 59.891 80.6663 53.9999C80.6663 48.1089 75.8907 43.3333 69.9997 43.3333C64.1086 43.3333 59.333 48.1089 59.333 53.9999C59.333 59.891 64.1086 64.6666 69.9997 64.6666Z" fill="#333335"/>
<path d="M91.3337 84.6667C91.3337 91.2934 91.3337 96.6667 70.0003 96.6667C48.667 96.6667 48.667 91.2934 48.667 84.6667C48.667 78.0401 58.219 72.6667 70.0003 72.6667C81.7817 72.6667 91.3337 78.0401 91.3337 84.6667Z" fill="#333335"/>
<path d="M124.652 121.455L125.301 120.806C125.817 120.29 126.517 120 127.248 120C127.978 120 128.678 120.29 129.194 120.807C129.71 121.323 130 122.023 130 122.753C130 123.484 129.71 124.184 129.194 124.7L128.544 125.349C128.544 125.349 127.166 125.268 125.95 124.051C124.733 122.835 124.652 121.456 124.652 121.456L118.687 127.42C118.283 127.824 118.081 128.026 117.907 128.249C117.702 128.511 117.527 128.796 117.383 129.097C117.262 129.352 117.172 129.623 116.991 130.165L116.412 131.9M116.412 131.9L116.038 133.022C115.994 133.153 115.987 133.294 116.019 133.428C116.05 133.562 116.119 133.685 116.216 133.783C116.314 133.881 116.437 133.949 116.571 133.981C116.705 134.012 116.846 134.006 116.977 133.962L118.1 133.588M116.412 131.9L118.1 133.588M128.545 125.348L122.58 131.313C122.176 131.717 121.974 131.919 121.751 132.093C121.488 132.298 121.204 132.474 120.903 132.617C120.648 132.738 120.377 132.828 119.835 133.009L118.1 133.588" stroke="#848484" stroke-width="1.5"/>
<path d="M130 130C130 135.523 125.523 140 120 140C114.477 140 110 135.523 110 130C110 124.477 114.477 120 120 120" stroke="#848484" stroke-width="1.5" stroke-linecap="round"/>
</svg>
