<svg width="34" height="34" viewBox="0 0 34 34" fill="none" xmlns="http://www.w3.org/2000/svg">
<path d="M18.0625 12.75C18.0625 12.4682 17.9506 12.198 17.7513 11.9987C17.552 11.7994 17.2818 11.6875 17 11.6875C16.7182 11.6875 16.448 11.7994 16.2487 11.9987C16.0494 12.198 15.9375 12.4682 15.9375 12.75V15.9375H12.75C12.4682 15.9375 12.198 16.0494 11.9987 16.2487C11.7994 16.448 11.6875 16.7182 11.6875 17C11.6875 17.2818 11.7994 17.552 11.9987 17.7513C12.198 17.9506 12.4682 18.0625 12.75 18.0625H15.9375V21.25C15.9375 21.5318 16.0494 21.802 16.2487 22.0013C16.448 22.2006 16.7182 22.3125 17 22.3125C17.2818 22.3125 17.552 22.2006 17.7513 22.0013C17.9506 21.802 18.0625 21.5318 18.0625 21.25V18.0625H21.25C21.5318 18.0625 21.802 17.9506 22.0013 17.7513C22.2006 17.552 22.3125 17.2818 22.3125 17C22.3125 16.7182 22.2006 16.448 22.0013 16.2487C21.802 16.0494 21.5318 15.9375 21.25 15.9375H18.0625V12.75Z" fill="url(#paint0_linear_5_6564)"/>
<path fill-rule="evenodd" clip-rule="evenodd" d="M17.0002 1.77075C8.58941 1.77075 1.771 8.58917 1.771 16.9999C1.771 25.4107 8.58941 32.2291 17.0002 32.2291C25.4109 32.2291 32.2293 25.4107 32.2293 16.9999C32.2293 8.58917 25.4109 1.77075 17.0002 1.77075ZM3.896 16.9999C3.896 13.5245 5.27661 10.1914 7.73412 7.73387C10.1916 5.27637 13.5247 3.89575 17.0002 3.89575C20.4756 3.89575 23.8087 5.27637 26.2662 7.73387C28.7237 10.1914 30.1043 13.5245 30.1043 16.9999C30.1043 20.4754 28.7237 23.8085 26.2662 26.266C23.8087 28.7235 20.4756 30.1041 17.0002 30.1041C13.5247 30.1041 10.1916 28.7235 7.73412 26.266C5.27661 23.8085 3.896 20.4754 3.896 16.9999Z" fill="url(#paint1_linear_5_6564)"/>
<defs>
<linearGradient id="paint0_linear_5_6564" x1="11.6875" y1="17" x2="22.3125" y2="17" gradientUnits="userSpaceOnUse">
<stop stop-color="#A513B8"/>
<stop offset="1" stop-color="#EA3B12"/>
</linearGradient>
<linearGradient id="paint1_linear_5_6564" x1="1.771" y1="16.9999" x2="32.2293" y2="16.9999" gradientUnits="userSpaceOnUse">
<stop stop-color="#A513B8"/>
<stop offset="1" stop-color="#EA3B12"/>
</linearGradient>
</defs>
</svg>
