<svg width="205" height="186" viewBox="0 0 205 186" fill="none" xmlns="http://www.w3.org/2000/svg">
<path d="M172.833 42.8566H182.467V32.0968H190.967M193.233 158.95L204 170.276M42.5 173.674L31.7333 185M42.5 185L31.7333 173.674M14.1667 97.2222H0M44.7667 42.8566L40.8 36.6272L34 41.1577L28.9 34.362M96.3333 34.362V27M100.3 30.3978H92.3667" stroke="#BAC0CA"/>
<circle cx="131" cy="7" r="6.5" stroke="#BAC0CA"/>
<circle cx="31.5" cy="134.5" r="5" stroke="#BAC0CA"/>
<circle cx="193" cy="113" r="4.5" stroke="#BAC0CA"/>
<mask id="mask0_156_71" style="mask-type:luminance" maskUnits="userSpaceOnUse" x="52" y="105" width="57" height="57">
<path d="M80.1818 160C83.6207 160.005 87.0266 159.329 90.2037 158.013C93.3808 156.697 96.2665 154.766 98.6949 152.331C101.13 149.903 103.061 147.017 104.377 143.84C105.693 140.663 106.368 137.257 106.364 133.818C106.368 130.379 105.693 126.974 104.377 123.796C103.061 120.619 101.13 117.734 98.6949 115.305C96.2665 112.87 93.3808 110.939 90.2037 109.623C87.0266 108.307 83.6207 107.632 80.1818 107.636C76.7429 107.632 73.3371 108.307 70.16 109.623C66.9829 110.939 64.0972 112.87 61.6687 115.305C59.2339 117.734 57.3029 120.619 55.9869 123.796C54.6709 126.974 53.9956 130.379 54 133.818C53.9956 137.257 54.6708 140.663 55.9868 143.84C57.3029 147.017 59.2338 149.903 61.6687 152.331C64.0972 154.766 66.9829 156.697 70.16 158.013C73.3371 159.329 76.7429 160.004 80.1818 160Z" fill="white" stroke="white" stroke-width="4" stroke-linejoin="round"/>
<path d="M69.709 133.818L77.5635 141.673L93.2726 125.964" stroke="black" stroke-width="4" stroke-linecap="round" stroke-linejoin="round"/>
</mask>
<g mask="url(#mask0_156_71)">
<path d="M48.7637 102.4H111.6V165.236H48.7637V102.4Z" fill="url(#paint0_linear_156_71)"/>
</g>
<path fill-rule="evenodd" clip-rule="evenodd" d="M127.712 58.3849C127.588 58.4519 127.479 58.5436 127.391 58.6543L112.966 77.0355H105.025L122.494 54.782C123.106 54.0025 123.87 53.3565 124.739 52.8833C125.609 52.4101 126.565 52.1198 127.549 52.03C128.534 51.9401 129.527 52.0528 130.467 52.3609C131.407 52.6691 132.274 53.1663 133.016 53.8223L148.398 67.4381C149.729 68.6159 150.586 70.2416 150.807 72.0093C151.027 73.7769 150.596 75.5645 149.595 77.0355H141.514L144.382 73.5846C144.556 73.3762 144.642 73.1077 144.622 72.8365C144.602 72.5652 144.477 72.3126 144.274 72.1325L137.406 66.0527L128.651 77.0355H120.669L132.725 61.9091L128.892 58.5208C128.786 58.4273 128.663 58.3563 128.529 58.3122C128.395 58.2681 128.254 58.2518 128.113 58.2643C127.973 58.2768 127.836 58.3178 127.712 58.3849ZM87.3307 75.8657C87.9155 75.2788 88.7085 74.9491 89.5354 74.9491H102.539L107.495 68.6899H89.5354C87.0547 68.6899 84.6755 69.6791 82.9213 71.4398C81.1671 73.2006 80.1816 75.5886 80.1816 78.0787V101.909C80.1817 101.909 80.1817 101.909 80.1818 101.909C98.7084 101.909 113.727 116.928 113.727 135.455L143.58 135.455C147.163 135.455 150.6 134.026 153.133 131.482C155.667 128.939 157.091 125.49 157.091 121.893V94.7698C157.091 91.1731 155.667 87.7237 153.133 85.1804C150.6 82.6371 147.163 81.2083 143.58 81.2083H89.5354C88.7085 81.2083 87.9155 80.8785 87.3307 80.2916C86.746 79.7047 86.4175 78.9087 86.4175 78.0787C86.4175 77.2487 86.746 76.4526 87.3307 75.8657ZM135.265 112.504C133.544 112.504 132.147 111.102 132.147 109.375C132.147 108.545 132.476 107.749 133.06 107.162C133.645 106.575 134.438 106.245 135.265 106.245H143.58C144.407 106.245 145.2 106.575 145.784 107.162C146.369 107.749 146.698 108.545 146.698 109.375C146.698 110.205 146.369 111.001 145.784 111.588C145.2 112.174 144.407 112.504 143.58 112.504H135.265Z" fill="#2FD87B"/>
<defs>
<linearGradient id="paint0_linear_156_71" x1="48.7637" y1="133.818" x2="111.6" y2="133.818" gradientUnits="userSpaceOnUse">
<stop stop-color="#A513B8"/>
<stop offset="1" stop-color="#EA3B12"/>
</linearGradient>
</defs>
</svg>
