<svg width="24" height="24" viewBox="0 0 24 24" fill="none" xmlns="http://www.w3.org/2000/svg">
<path fill-rule="evenodd" clip-rule="evenodd" d="M11.7494 10.5C11.2474 10.5 10.9354 10.825 10.7634 11.05C10.5984 11.264 10.4334 11.561 10.2634 11.866L10.1424 12.084L10.0854 12.184L9.98637 12.207L9.74837 12.261C9.42137 12.335 9.09537 12.409 8.84537 12.507C8.56937 12.616 8.19537 12.827 8.05037 13.292C7.90837 13.748 8.08737 14.133 8.24337 14.382C8.38837 14.612 8.60837 14.868 8.83337 15.131L8.99337 15.319L9.07637 15.416C9.07235 15.461 9.06802 15.506 9.06337 15.551L9.03937 15.801C9.00537 16.153 8.97237 16.493 8.98437 16.765C8.99637 17.05 9.06437 17.482 9.45237 17.775C9.85237 18.079 10.2924 18.013 10.5724 17.933C10.8304 17.859 11.1354 17.718 11.4424 17.577L11.6644 17.474L11.7494 17.436L11.7864 17.453L11.8344 17.474L12.0574 17.577C12.3634 17.718 12.6684 17.859 12.9264 17.933C13.2064 18.013 13.6464 18.079 14.0464 17.776C14.4334 17.482 14.5024 17.05 14.5144 16.765C14.5264 16.493 14.4944 16.152 14.4594 15.8L14.4354 15.551C14.4304 15.495 14.4254 15.452 14.4234 15.416C14.4498 15.3829 14.4772 15.3506 14.5054 15.319L14.6654 15.131C14.8904 14.868 15.1104 14.611 15.2554 14.381C15.4114 14.133 15.5904 13.748 15.4484 13.291C15.3044 12.828 14.9294 12.616 14.6534 12.507C14.4034 12.409 14.0774 12.335 13.7504 12.261L13.5124 12.207L13.4124 12.184L13.3564 12.084L13.2354 11.866C13.0654 11.561 12.9004 11.264 12.7354 11.05C12.5634 10.825 12.2514 10.5 11.7494 10.5ZM11.5504 12.638C11.6264 12.501 11.6904 12.385 11.7494 12.285C11.8074 12.385 11.8724 12.501 11.9484 12.638L12.0464 12.814L12.0694 12.854C12.1474 12.998 12.2774 13.236 12.4944 13.401C12.7154 13.569 12.9824 13.627 13.1374 13.661L13.1814 13.671L13.3714 13.713C13.5474 13.753 13.6904 13.785 13.8114 13.816C13.7324 13.914 13.6294 14.035 13.4954 14.192L13.3654 14.344L13.3354 14.379C13.2274 14.503 13.0534 14.704 12.9724 14.963C12.8924 15.219 12.9204 15.483 12.9374 15.649L12.9424 15.696L12.9624 15.899C12.9804 16.087 12.9944 16.237 13.0044 16.359C12.8994 16.314 12.7814 16.259 12.6404 16.194L12.4614 16.112L12.4214 16.093C12.2774 16.025 12.0284 15.908 11.7494 15.908C11.4704 15.908 11.2214 16.025 11.0774 16.093L11.0374 16.112L10.8584 16.194C10.7184 16.259 10.5984 16.314 10.4944 16.36C10.5044 16.237 10.5184 16.087 10.5364 15.899L10.5564 15.696L10.5614 15.649C10.5784 15.483 10.6064 15.219 10.5264 14.963C10.4464 14.703 10.2714 14.503 10.1634 14.379L10.1334 14.344L10.0034 14.192C9.89658 14.0679 9.79123 13.9426 9.68737 13.816C9.80837 13.786 9.95137 13.753 10.1274 13.713L10.3174 13.67L10.3614 13.66C10.5164 13.627 10.7834 13.569 11.0044 13.4C11.2214 13.236 11.3514 12.998 11.4294 12.855L11.4524 12.815L11.5504 12.638Z" fill="#646464"/>
<path fill-rule="evenodd" clip-rule="evenodd" d="M11.7494 1C11.0434 1 10.5944 1.5 10.2924 1.947C9.98638 2.402 9.66738 3.057 9.28838 3.833L7.02538 8.47C6.80638 8.918 6.66538 9.205 6.54338 9.404C6.50499 9.47416 6.45722 9.53875 6.40138 9.596C6.37432 9.60904 6.34436 9.61489 6.31438 9.613C6.25801 9.57826 6.20568 9.53734 6.15838 9.491C5.99638 9.341 5.79438 9.112 5.47438 8.748L5.44538 8.715C4.87338 8.063 4.40538 7.53 4.01938 7.17C3.8314 6.98681 3.62226 6.82668 3.39638 6.693C3.14957 6.54612 2.86394 6.47776 2.57738 6.497C2.34717 6.51917 2.12367 6.58691 1.91989 6.69626C1.71611 6.80562 1.53611 6.95442 1.39038 7.134C1.03538 7.563 0.995379 8.163 1.00038 8.681C1.00438 9.241 1.07438 9.984 1.16038 10.908L1.39838 13.43C1.58338 15.396 1.72838 16.935 1.97838 18.131C2.23438 19.349 2.61838 20.314 3.35338 21.064C4.09838 21.827 5.01338 22.175 6.14538 22.341C7.23338 22.5 8.60838 22.5 10.3304 22.5H13.1684C14.8904 22.5 16.2654 22.5 17.3534 22.34C18.4854 22.175 19.4004 21.827 20.1454 21.064C20.8794 20.314 21.2644 19.349 21.5194 18.131C21.7704 16.935 21.9154 15.396 22.1004 13.43L22.3384 10.908C22.4254 9.984 22.4954 9.241 22.4984 8.681C22.5034 8.163 22.4634 7.563 22.1084 7.134C21.9627 6.95434 21.7827 6.80548 21.5789 6.69612C21.3751 6.58675 21.1516 6.51906 20.9214 6.497C20.6348 6.47776 20.3492 6.54612 20.1024 6.693C19.8765 6.82668 19.6674 6.98681 19.4794 7.17C19.0934 7.53 18.6254 8.063 18.0534 8.715L18.0234 8.748C17.7034 9.112 17.5024 9.341 17.3404 9.491C17.2934 9.53725 17.2414 9.57817 17.1854 9.613C17.1551 9.61507 17.1247 9.60921 17.0974 9.596C17.0415 9.53878 16.9937 9.47418 16.9554 9.404C16.8334 9.205 16.6924 8.918 16.4734 8.47L14.2104 3.833C13.8314 3.056 13.5124 2.402 13.2064 1.947C12.9044 1.499 12.4564 1 11.7494 1ZM10.6104 4.544C11.0224 3.7 11.2964 3.142 11.5364 2.785C11.5972 2.68953 11.6686 2.60129 11.7494 2.522C11.7894 2.559 11.8594 2.634 11.9624 2.785C12.2024 3.142 12.4764 3.7 12.8884 4.544L15.1414 9.16C15.3394 9.567 15.5124 9.92 15.6774 10.19C15.8474 10.465 16.0694 10.758 16.4174 10.933C16.7304 11.091 17.0834 11.149 17.4334 11.093C17.8264 11.031 18.1244 10.808 18.3584 10.592C18.5854 10.382 18.8384 10.094 19.1264 9.766L19.1514 9.738C19.7594 9.045 20.1784 8.569 20.5034 8.266C20.6634 8.116 20.7694 8.039 20.8344 8.003C20.8783 8.01955 20.9172 8.0471 20.9474 8.083L20.9484 8.09C20.9584 8.12 21.0024 8.262 20.9984 8.67C20.9954 9.157 20.9324 9.835 20.8414 10.806L20.6114 13.241C20.4214 15.265 20.2834 16.72 20.0514 17.823C19.8224 18.913 19.5214 19.557 19.0734 20.016C18.6354 20.464 18.0734 20.72 17.1364 20.856C16.1694 20.998 14.9044 21 13.1094 21H10.3894C8.59438 21 7.32938 20.998 6.36238 20.857C5.42538 20.72 4.86338 20.464 4.42538 20.016C3.97738 19.557 3.67538 18.913 3.44738 17.823C3.21538 16.72 3.07738 15.265 2.88738 13.241L2.65738 10.806C2.56738 9.835 2.50338 9.156 2.49938 8.669C2.49638 8.262 2.54138 8.119 2.54938 8.089L2.55238 8.084C2.58178 8.04764 2.61999 8.01941 2.66338 8.002C2.72838 8.039 2.83438 8.116 2.99538 8.266C3.32038 8.569 3.73938 9.045 4.34738 9.738L4.37238 9.766C4.66038 10.094 4.91338 10.383 5.14038 10.592C5.37438 10.808 5.67238 11.032 6.06538 11.094C6.41538 11.149 6.76838 11.091 7.08138 10.933C7.42938 10.758 7.65138 10.465 7.82138 10.19C7.98638 9.92 8.15938 9.567 8.35738 9.16L10.6104 4.544ZM11.7934 2.49L11.7834 2.494C11.7904 2.49 11.7934 2.489 11.7934 2.49ZM11.7144 2.494L11.7054 2.49C11.7054 2.49 11.7074 2.49 11.7144 2.494Z" fill="#646464"/>
</svg>
